<svg xmlns="http://www.w3.org/2000/svg" class="svg-logo" width="2400" height="2400" viewBox="0 0 630 430" style="height: auto;"><rect width="630" height="630" y="-100" rx="0" ry="0" fill="transparent" fill-opacity="0"></rect><g data-element="wrapper" transform="translate(-3.069544618483633e-12 7.499992370603451) scale(1.0000000000000098)"><g ><path d="M152.28 191.86L152.28 191.86Q151.66 192.46 150.94 193.07Q150.22 193.67 149.41 194.30L149.41 194.30Q150.19 196.21 150.95 197.94Q151.72 199.67 152.39 201.13Q153.06 202.58 153.66 203.67Q154.25 204.77 154.72 205.42L154.72 205.42Q155.38 206.33 156.19 207.02L156.19 207.02Q156.91 207.61 157.86 208.10Q158.81 208.58 159.97 208.58L159.97 208.58Q161.13 208.58 162.47 207.80L162.47 207.80Q161.34 208.99 160.08 210.13Q158.81 211.27 157.42 212.17Q156.03 213.08 154.55 213.64Q153.06 214.21 151.50 214.21L151.50 214.21Q150.31 214.21 149.31 213.50Q148.31 212.80 147.34 211.02L147.34 211.02Q147 210.46 146.44 209.22Q145.88 207.99 145.14 206.28Q144.41 204.58 143.53 202.50Q142.66 200.42 141.72 198.14L141.72 198.14Q139.75 198.74 137.45 199.08Q135.16 199.42 132.50 199.42L132.50 199.42L123.28 199.42L120.72 205.42Q120.50 206.02 120.42 206.63Q120.34 207.24 120.53 207.74Q120.72 208.24 121.27 208.57Q121.81 208.89 122.91 208.89L122.91 208.89Q123.53 208.89 124.31 208.77Q125.09 208.64 126.09 208.39L126.09 208.39Q124.34 210.05 123.06 211.21Q121.78 212.36 120.63 213.08Q119.47 213.80 118.28 214.13Q117.09 214.46 115.56 214.46L115.56 214.46Q114.66 214.46 114.27 214.02Q113.88 213.58 113.88 212.80L113.88 212.80Q113.88 211.80 114.39 210.36Q114.91 208.92 115.69 207.17L115.69 207.17Q116.34 205.58 118.25 201.27L118.25 201.27Q119.06 199.42 120.22 196.80Q121.38 194.17 122.97 190.60Q124.56 187.02 126.61 182.36Q128.66 177.71 131.28 171.83L131.28 171.83L132.75 170.61Q132.75 169.64 132.91 168.92Q133.06 168.21 133.36 167.66Q133.66 167.11 134.06 166.67Q134.47 166.24 134.94 165.83L134.94 165.83Q135.50 165.36 136.28 164.74L136.28 164.74Q137.59 163.67 140.13 161.55L140.13 161.55Q139.75 162.27 139.61 163.16Q139.47 164.05 139.47 164.92L139.47 164.92Q139.47 165.83 139.56 166.66Q139.66 167.49 139.78 168.11L139.78 168.11Q139.91 168.86 140.13 169.49L140.13 169.49Q140.47 170.61 141.31 173.05Q142.16 175.49 143.33 178.66Q144.50 181.83 145.88 185.42Q147.25 189.02 148.63 192.46L148.63 192.46Q149.53 192.33 150.22 192.21Q150.91 192.08 151.38 192.02L151.38 192.02Q151.91 191.92 152.28 191.86ZM133.66 176.58L133.66 176.58Q131.44 181.42 129.47 185.66Q127.50 189.89 125.72 194.05L125.72 194.05Q129.91 193.96 133.41 193.77Q136.91 193.58 139.75 193.33L139.75 193.33Q138.75 190.89 137.83 188.47Q136.91 186.05 136.11 183.86Q135.31 181.67 134.67 179.80Q134.03 177.92 133.66 176.58ZM175.91 209.33L175.91 209.33L168.44 214.71Q168.72 208.67 168.88 204.42Q169.03 200.17 169.09 197.42L169.09 197.42Q169.19 194.21 169.19 192.11L169.19 192.11Q169.34 188.33 168.16 186.19Q166.97 184.05 164.53 184.05L164.53 184.05Q163.75 184.05 162.89 184.28Q162.03 184.52 161.06 184.96L161.06 184.96Q162.28 184.08 163.63 183.16Q164.97 182.24 166.38 181.49Q167.78 180.74 169.20 180.25Q170.63 179.77 172 179.77L172 179.77Q173.31 179.77 174.39 180.30Q175.47 180.83 176.03 182.08L176.03 182.08Q176.53 183.14 176.73 184.46Q176.94 185.77 177 187.33L177 187.33Q178.59 185.64 180.58 184.17Q182.56 182.71 184.72 181.67Q186.88 180.64 189.06 180.14Q191.25 179.64 193.19 179.89L193.19 179.89Q194.59 180.08 196.11 180.67Q197.63 181.27 198.89 182.49Q200.16 183.71 200.94 185.69Q201.72 187.67 201.66 190.64L201.66 190.64Q201.56 194.14 201.34 197.07Q201.13 199.99 201.13 202.24L201.13 202.24Q201.13 203.58 201.34 204.78Q201.56 205.99 202.11 206.88Q202.66 207.77 203.59 208.30Q204.53 208.83 205.94 208.83L205.94 208.83Q207.19 208.83 208.58 208.35Q209.97 207.86 211.38 206.86L211.38 206.86Q209.09 208.89 207.20 210.27Q205.31 211.64 203.69 212.49Q202.06 213.33 200.66 213.69Q199.25 214.05 197.94 214.02L197.94 214.02Q196.63 213.99 195.69 213.50Q194.75 213.02 194.19 212.00Q193.63 210.99 193.41 209.38Q193.19 207.77 193.25 205.42L193.25 205.42Q193.34 203.36 193.50 200.88Q193.66 198.39 193.66 195.96L193.66 195.96Q193.66 193.17 193.28 191.17Q192.91 189.17 191.92 187.88Q190.94 186.58 189.20 185.96Q187.47 185.33 184.75 185.33L184.75 185.33Q182.78 185.33 181.41 186.10Q180.03 186.86 179.13 188.17Q178.22 189.49 177.70 191.22Q177.19 192.96 176.92 194.91Q176.66 196.86 176.56 198.91Q176.47 200.96 176.42 202.86Q176.38 204.77 176.28 206.44Q176.19 208.11 175.91 209.33ZM241.41 200.21L241.41 200.21Q241.41 202.36 240.27 204.22Q239.13 206.08 237.28 207.64Q235.44 209.21 233.11 210.39Q230.78 211.58 228.38 212.39Q225.97 213.21 223.72 213.58Q221.47 213.96 219.78 213.83L219.78 213.83Q218.31 213.77 216.70 213.38Q215.09 212.99 213.86 212.42Q212.63 211.86 212.02 211.21Q211.41 210.55 211.97 209.92L211.97 209.92Q212.53 209.33 213.19 208.74Q213.84 208.14 214.75 207.50Q215.66 206.86 216.91 206.14Q218.16 205.42 219.91 204.55L219.91 204.55Q219.34 205.42 219.63 206.08Q219.91 206.74 220.67 207.25Q221.44 207.77 222.55 208.11Q223.66 208.46 224.73 208.67Q225.81 208.89 226.70 208.99Q227.59 209.08 227.97 209.08L227.97 209.08Q229.09 209.08 230.20 208.97Q231.31 208.86 232.19 208.49Q233.06 208.11 233.61 207.38Q234.16 206.64 234.16 205.36L234.16 205.36Q234.16 203.80 233.30 202.71Q232.44 201.61 231.05 200.88Q229.66 200.14 227.94 199.71Q226.22 199.27 224.52 198.97Q222.81 198.67 221.30 198.47Q219.78 198.27 218.81 198.02L218.81 198.02Q217.25 197.61 216.20 196.94Q215.16 196.27 214.52 195.44Q213.88 194.61 213.59 193.67Q213.31 192.74 213.31 191.80L213.31 191.80Q213.31 189.71 214.44 187.92Q215.56 186.14 217.38 184.71Q219.19 183.27 221.48 182.17Q223.78 181.08 226.14 180.33Q228.50 179.58 230.72 179.21Q232.94 178.83 234.56 178.83L234.56 178.83Q236.44 178.83 237.89 179.03Q239.34 179.24 240.25 179.52L240.25 179.52Q241.13 179.80 241.36 180.24Q241.59 180.67 241.36 181.24Q241.13 181.80 240.47 182.46Q239.81 183.11 238.91 183.80L238.91 183.80Q238.19 184.36 237.38 184.86L237.38 184.86Q236.66 185.30 235.78 185.75Q234.91 186.21 233.97 186.55L233.97 186.55Q234.44 185.96 234.36 185.49Q234.28 185.02 233.78 184.64Q233.28 184.27 232.44 184.00Q231.59 183.74 230.56 183.57Q229.53 183.39 228.39 183.32Q227.25 183.24 226.16 183.24L226.16 183.24Q225.09 183.24 224.03 183.32Q222.97 183.39 222.13 183.72Q221.28 184.05 220.75 184.74Q220.22 185.42 220.22 186.61L220.22 186.61Q220.22 187.58 220.66 188.63Q221.09 189.67 221.95 190.60Q222.81 191.52 224.09 192.24Q225.38 192.96 227.06 193.27L227.06 193.27Q228.38 193.52 229.97 193.64Q231.56 193.77 233.16 193.96Q234.75 194.14 236.23 194.49Q237.72 194.83 238.88 195.52Q240.03 196.21 240.72 197.33Q241.41 198.46 241.41 200.21ZM257.34 209.33L257.34 209.33L249.84 214.71Q249.97 206.58 250.09 200.11Q250.22 193.64 250.30 188.60Q250.38 183.55 250.44 179.83Q250.50 176.11 250.53 173.46L250.53 173.46Q250.63 167.24 250.63 164.74L250.63 164.74Q250.72 160.92 249.55 158.80Q248.38 156.67 245.94 156.67L245.94 156.67Q245.16 156.67 244.31 156.88Q243.47 157.08 242.50 157.58L242.50 157.58Q243.72 156.71 245.06 155.78Q246.41 154.86 247.80 154.11Q249.19 153.36 250.61 152.88Q252.03 152.39 253.44 152.39L253.44 152.39Q254.69 152.39 255.56 152.86Q256.44 153.33 257.02 154.10Q257.59 154.86 257.91 155.85Q258.22 156.83 258.36 157.89Q258.50 158.96 258.53 160.02Q258.56 161.08 258.56 161.99L258.56 161.99Q258.56 162.46 258.55 163.69Q258.53 164.92 258.50 166.77Q258.47 168.61 258.42 170.99Q258.38 173.36 258.31 176.08Q258.25 178.80 258.19 181.78Q258.13 184.77 258.03 187.83L258.03 187.83Q259.56 186.05 261.59 184.50Q263.63 182.96 265.84 181.85Q268.06 180.74 270.33 180.19Q272.59 179.64 274.63 179.89L274.63 179.89Q276 180.08 277.52 180.67Q279.03 181.27 280.30 182.49Q281.56 183.71 282.34 185.69Q283.13 187.67 283.06 190.64L283.06 190.64Q282.97 194.14 282.77 197.07Q282.56 199.99 282.56 202.24L282.56 202.24Q282.56 203.58 282.78 204.78Q283 205.99 283.53 206.88Q284.06 207.77 285 208.30Q285.94 208.83 287.34 208.83L287.34 208.83Q288.63 208.83 290 208.35Q291.38 207.86 292.78 206.86L292.78 206.86Q290.50 208.89 288.61 210.27Q286.72 211.64 285.11 212.49Q283.50 213.33 282.08 213.69Q280.66 214.05 279.34 214.02L279.34 214.02Q278.03 213.99 277.11 213.50Q276.19 213.02 275.63 212.00Q275.06 210.99 274.84 209.38Q274.63 207.77 274.69 205.42L274.69 205.42Q274.78 203.36 274.92 200.88Q275.06 198.39 275.06 195.96L275.06 195.96Q275.06 193.17 274.70 191.17Q274.34 189.17 273.36 187.88Q272.38 186.58 270.64 185.96Q268.91 185.33 266.16 185.33L266.16 185.33Q264.75 185.33 263.56 185.58Q262.38 185.83 261.69 186.30L261.69 186.30Q261.13 186.71 260.47 188.16Q259.81 189.61 259.19 192.38Q258.56 195.14 258.06 199.32Q257.56 203.49 257.34 209.33ZM350.09 196.02L350.09 196.02Q349.75 198.86 348.33 201.39Q346.91 203.92 344.78 206.08Q342.66 208.24 340 209.97Q337.34 211.71 334.52 212.91Q331.69 214.11 328.84 214.77Q326 215.42 323.53 215.42L323.53 215.42Q322.31 215.39 321.06 215.27L321.06 215.27Q319.97 215.14 318.63 214.91Q317.28 214.67 315.97 214.21L315.97 214.21L317.38 172.36Q316.06 172.36 314.53 172.27Q313 172.17 311.19 171.96L311.19 171.96L319.19 167.42Q320.28 167.61 321.33 167.67Q322.38 167.74 323.28 167.74L323.28 167.74Q324.91 167.74 326.44 167.53Q327.97 167.33 329.44 167.07Q330.91 166.80 332.34 166.60Q333.78 166.39 335.25 166.39L335.25 166.39Q337.66 166.39 339.67 167.07Q341.69 167.74 343.14 169.03Q344.59 170.33 345.36 172.21Q346.13 174.08 346.06 176.52L346.06 176.52Q345.91 178.08 344.97 179.77L344.97 179.77Q344.56 180.49 343.97 181.30Q343.38 182.11 342.50 182.96Q341.63 183.80 340.47 184.64Q339.31 185.49 337.81 186.30L337.81 186.30Q338.38 186.24 338.91 186.21Q339.44 186.17 339.91 186.17L339.91 186.17Q341.94 186.17 343.45 186.60Q344.97 187.02 346.08 187.72Q347.19 188.42 347.91 189.30Q348.63 190.17 349.06 191.11L349.06 191.11Q350.09 193.30 350.09 196.02ZM331.53 210.61L331.53 210.61Q334.09 210.61 336.06 209.89Q338.03 209.17 339.38 207.82Q340.72 206.46 341.41 204.50Q342.09 202.55 342.09 200.05L342.09 200.05Q342.09 197.92 341.38 196.13Q340.66 194.33 339.36 193.03Q338.06 191.74 336.31 191.00Q334.56 190.27 332.50 190.27L332.50 190.27Q331.72 190.27 330.92 190.42Q330.13 190.58 329.34 190.99L329.34 190.99Q332 189.58 333.69 188.10Q335.38 186.61 336.33 185.16Q337.28 183.71 337.64 182.33Q338 180.96 338 179.77L338 179.77Q338 177.99 337.36 176.44Q336.72 174.89 335.63 173.75Q334.53 172.61 333.03 171.97Q331.53 171.33 329.81 171.33L329.81 171.33Q328.63 171.33 327.56 171.44Q326.50 171.55 325.44 171.71L325.44 171.71L324.03 209.39Q326.28 210.08 328.13 210.35Q329.97 210.61 331.53 210.61ZM394.75 194.61L394.75 194.61Q394.75 197.21 394.03 199.33Q393.31 201.46 392.31 203.05Q391.31 204.64 390.28 205.71Q389.25 206.77 388.63 207.24L388.63 207.24Q386.81 208.55 384.91 209.80Q383 211.05 380.98 212.03Q378.97 213.02 376.84 213.61Q374.72 214.21 372.47 214.21L372.47 214.21Q369.13 214.21 366.14 213.36Q363.16 212.52 360.92 210.83Q358.69 209.14 357.39 206.58Q356.09 204.02 356.09 200.58L356.09 200.58Q356.09 197.55 357.14 194.88Q358.19 192.21 359.95 189.96Q361.72 187.71 364.09 185.91Q366.47 184.11 369.13 182.86Q371.78 181.61 374.59 180.96Q377.41 180.30 380.03 180.30L380.03 180.30Q383.28 180.30 385.98 181.38Q388.69 182.46 390.64 184.38Q392.59 186.30 393.67 188.92Q394.75 191.55 394.75 194.61ZM373.19 183.92L373.19 183.92Q371.59 183.92 370.28 184.50Q368.97 185.08 367.95 186.07Q366.94 187.05 366.20 188.35Q365.47 189.64 364.98 191.07Q364.50 192.49 364.27 193.94Q364.03 195.39 364.03 196.67L364.03 196.67Q364.03 199.58 365.09 202.10Q366.16 204.61 368.02 206.49Q369.88 208.36 372.36 209.42Q374.84 210.49 377.66 210.49L377.66 210.49Q379.41 210.49 381.05 209.82Q382.69 209.14 383.95 207.69Q385.22 206.24 385.98 203.94Q386.75 201.64 386.75 198.39L386.75 198.39Q386.75 195.55 385.69 192.92Q384.63 190.30 382.78 188.30Q380.94 186.30 378.47 185.11Q376 183.92 373.19 183.92ZM439.28 194.61L439.28 194.61Q439.28 197.21 438.56 199.33Q437.84 201.46 436.84 203.05Q435.84 204.64 434.81 205.71Q433.78 206.77 433.16 207.24L433.16 207.24Q431.34 208.55 429.44 209.80Q427.53 211.05 425.52 212.03Q423.50 213.02 421.38 213.61Q419.25 214.21 417 214.21L417 214.21Q413.66 214.21 410.67 213.36Q407.69 212.52 405.45 210.83Q403.22 209.14 401.92 206.58Q400.63 204.02 400.63 200.58L400.63 200.58Q400.63 197.55 401.67 194.88Q402.72 192.21 404.48 189.96Q406.25 187.71 408.63 185.91Q411 184.11 413.66 182.86Q416.31 181.61 419.13 180.96Q421.94 180.30 424.56 180.30L424.56 180.30Q427.81 180.30 430.52 181.38Q433.22 182.46 435.17 184.38Q437.13 186.30 438.20 188.92Q439.28 191.55 439.28 194.61ZM417.72 183.92L417.72 183.92Q416.13 183.92 414.81 184.50Q413.50 185.08 412.48 186.07Q411.47 187.05 410.73 188.35Q410 189.64 409.52 191.07Q409.03 192.49 408.80 193.94Q408.56 195.39 408.56 196.67L408.56 196.67Q408.56 199.58 409.63 202.10Q410.69 204.61 412.55 206.49Q414.41 208.36 416.89 209.42Q419.38 210.49 422.19 210.49L422.19 210.49Q423.94 210.49 425.58 209.82Q427.22 209.14 428.48 207.69Q429.75 206.24 430.52 203.94Q431.28 201.64 431.28 198.39L431.28 198.39Q431.28 195.55 430.22 192.92Q429.16 190.30 427.31 188.30Q425.47 186.30 423 185.11Q420.53 183.92 417.72 183.92ZM455.09 209.33L455.09 209.33L447.59 214.71Q447.72 206.58 447.84 200.11Q447.97 193.64 448.05 188.60Q448.13 183.55 448.19 179.83Q448.25 176.11 448.28 173.46L448.28 173.46Q448.38 167.24 448.38 164.74L448.38 164.74Q448.47 160.92 447.30 158.80Q446.13 156.67 443.69 156.67L443.69 156.67Q442.91 156.67 442.05 156.88Q441.19 157.08 440.25 157.58L440.25 157.58Q441.47 156.71 442.81 155.78Q444.16 154.86 445.55 154.11Q446.94 153.36 448.36 152.88Q449.78 152.39 451.19 152.39L451.19 152.39Q452.44 152.39 453.31 152.86Q454.19 153.33 454.77 154.10Q455.34 154.86 455.66 155.85Q455.97 156.83 456.11 157.89Q456.25 158.96 456.28 160.02Q456.31 161.08 456.31 161.99L456.31 161.99L455.59 188.74Q457.28 186.83 459.42 185.19Q461.56 183.55 463.88 182.39Q466.19 181.24 468.52 180.67Q470.84 180.11 472.88 180.36L472.88 180.36Q474.09 180.52 475.16 181.07Q476.22 181.61 477 182.50Q477.78 183.39 478.23 184.57Q478.69 185.74 478.69 187.08L478.69 187.08Q478.69 189.30 477.66 191.05Q476.63 192.80 475.02 194.11Q473.41 195.42 471.45 196.28Q469.50 197.14 467.69 197.58L467.69 197.58Q468.53 198.49 469.67 199.71Q470.81 200.92 472.13 202.22Q473.44 203.52 474.88 204.78Q476.31 206.05 477.77 207.05Q479.22 208.05 480.63 208.66Q482.03 209.27 483.31 209.27L483.31 209.27Q485.81 209.27 488.38 207.67L488.38 207.67Q486.13 209.27 484.42 210.53Q482.72 211.80 481.23 212.64Q479.75 213.49 478.28 213.89Q476.81 214.30 475 214.14L475 214.14Q473.16 214.02 471.42 212.94Q469.69 211.86 468.09 210.39Q466.50 208.92 465.03 207.27Q463.56 205.61 462.25 204.30L462.25 204.30Q461.69 203.64 461 203.08L461 203.08Q460.41 202.61 459.58 202.14Q458.75 201.67 457.72 201.49L457.72 201.49Q458.81 200.58 459.92 199.88Q461.03 199.17 461.94 198.64L461.94 198.64Q463 198.05 464.03 197.58L464.03 197.58Q465.09 197.11 466.27 196.49Q467.44 195.86 468.42 195.03Q469.41 194.21 470.05 193.13Q470.69 192.05 470.69 190.64L470.69 190.64Q470.69 189.49 470.30 188.38Q469.91 187.27 469.19 186.41Q468.47 185.55 467.48 185.03Q466.50 184.52 465.31 184.52L465.31 184.52Q464.13 184.52 463.03 184.89Q461.94 185.27 461.22 185.67L461.22 185.67Q460.59 186.02 459.61 187.64Q458.63 189.27 457.66 192.21Q456.69 195.14 455.95 199.42Q455.22 203.71 455.09 209.33ZM488.69 207.42L488.38 207.67L488.69 207.42ZM516.16 200.21L516.16 200.21Q516.16 202.36 515.02 204.22Q513.88 206.08 512.03 207.64Q510.19 209.21 507.86 210.39Q505.53 211.58 503.13 212.39Q500.72 213.21 498.47 213.58Q496.22 213.96 494.53 213.83L494.53 213.83Q493.06 213.77 491.45 213.38Q489.84 212.99 488.61 212.42Q487.38 211.86 486.77 211.21Q486.16 210.55 486.72 209.92L486.72 209.92Q487.28 209.33 487.94 208.74Q488.59 208.14 489.50 207.50Q490.41 206.86 491.66 206.14Q492.91 205.42 494.66 204.55L494.66 204.55Q494.09 205.42 494.38 206.08Q494.66 206.74 495.42 207.25Q496.19 207.77 497.30 208.11Q498.41 208.46 499.48 208.67Q500.56 208.89 501.45 208.99Q502.34 209.08 502.72 209.08L502.72 209.08Q503.84 209.08 504.95 208.97Q506.06 208.86 506.94 208.49Q507.81 208.11 508.36 207.38Q508.91 206.64 508.91 205.36L508.91 205.36Q508.91 203.80 508.05 202.71Q507.19 201.61 505.80 200.88Q504.41 200.14 502.69 199.71Q500.97 199.27 499.27 198.97Q497.56 198.67 496.05 198.47Q494.53 198.27 493.56 198.02L493.56 198.02Q492 197.61 490.95 196.94Q489.91 196.27 489.27 195.44Q488.63 194.61 488.34 193.67Q488.06 192.74 488.06 191.80L488.06 191.80Q488.06 189.71 489.19 187.92Q490.31 186.14 492.13 184.71Q493.94 183.27 496.23 182.17Q498.53 181.08 500.89 180.33Q503.25 179.58 505.47 179.21Q507.69 178.83 509.31 178.83L509.31 178.83Q511.19 178.83 512.64 179.03Q514.09 179.24 515 179.52L515 179.52Q515.88 179.80 516.11 180.24Q516.34 180.67 516.11 181.24Q515.88 181.80 515.22 182.46Q514.56 183.11 513.66 183.80L513.66 183.80Q512.94 184.36 512.13 184.86L512.13 184.86Q511.41 185.30 510.53 185.75Q509.66 186.21 508.72 186.55L508.72 186.55Q509.19 185.96 509.11 185.49Q509.03 185.02 508.53 184.64Q508.03 184.27 507.19 184.00Q506.34 183.74 505.31 183.57Q504.28 183.39 503.14 183.32Q502 183.24 500.91 183.24L500.91 183.24Q499.84 183.24 498.78 183.32Q497.72 183.39 496.88 183.72Q496.03 184.05 495.50 184.74Q494.97 185.42 494.97 186.61L494.97 186.61Q494.97 187.58 495.41 188.63Q495.84 189.67 496.70 190.60Q497.56 191.52 498.84 192.24Q500.13 192.96 501.81 193.27L501.81 193.27Q503.13 193.52 504.72 193.64Q506.31 193.77 507.91 193.96Q509.50 194.14 510.98 194.49Q512.47 194.83 513.63 195.52Q514.78 196.21 515.47 197.33Q516.16 198.46 516.16 200.21Z" data-element="company-name" data-text-path="" data-text="Ansh Books" data-font-family="Eagle Lake" fill="#000000" fill-opacity="1"></path><path d="M153.75 270.20L151.10 270.20L151.10 249.09L157.12 249.09Q159.48 249.09 161.27 249.68Q163.05 250.27 164.03 251.62Q165.01 252.98 165.01 255.28L165.01 255.28Q165.01 257.50 164.03 258.94Q163.05 260.38 161.30 261.08Q159.54 261.79 157.24 261.79L157.24 261.79L153.75 261.79L153.75 270.20ZM153.75 251.25L153.75 259.63L156.89 259.63Q159.66 259.63 161.01 258.59Q162.36 257.56 162.36 255.28L162.36 255.28Q162.36 252.98 160.97 252.11Q159.57 251.25 156.78 251.25L156.78 251.25L153.75 251.25ZM171.72 270.20L169.07 270.20L169.07 254.56L171.23 254.56L171.49 257.41L171.55 257.41Q172.36 255.92 173.52 255.04Q174.69 254.16 175.99 254.16L175.99 254.16Q176.53 254.16 176.92 254.23Q177.31 254.30 177.66 254.50L177.66 254.50L177.17 256.78Q176.76 256.66 176.45 256.59Q176.13 256.52 175.64 256.52L175.64 256.52Q174.69 256.52 173.60 257.34Q172.50 258.16 171.72 260.15L171.72 260.15L171.72 270.20ZM186.18 270.57L186.18 270.57Q184.08 270.57 182.38 269.60Q180.68 268.62 179.69 266.79Q178.69 264.96 178.69 262.40L178.69 262.40Q178.69 260.47 179.27 258.95Q179.84 257.44 180.84 256.36Q181.83 255.28 183.10 254.72Q184.37 254.16 185.69 254.16L185.69 254.16Q187.71 254.16 189.09 255.05Q190.47 255.94 191.21 257.60Q191.94 259.26 191.94 261.50L191.94 261.50Q191.94 261.93 191.91 262.31Q191.88 262.68 191.83 263.00L191.83 263.00L181.28 263.00Q181.37 264.67 182.05 265.89Q182.72 267.12 183.85 267.80Q184.97 268.47 186.47 268.47L186.47 268.47Q187.62 268.47 188.56 268.14Q189.49 267.81 190.39 267.23L190.39 267.23L191.31 268.99Q190.30 269.65 189.03 270.11Q187.76 270.57 186.18 270.57ZM181.26 261.13L181.26 261.13L189.64 261.13Q189.64 258.77 188.61 257.51Q187.59 256.26 185.75 256.26L185.75 256.26Q184.65 256.26 183.69 256.84Q182.72 257.41 182.08 258.48Q181.43 259.54 181.26 261.13ZM199.89 270.57L199.89 270.57Q198.25 270.57 196.71 269.96Q195.17 269.34 194.07 268.41L194.07 268.41L195.34 266.66Q196.38 267.49 197.47 268.01Q198.56 268.53 199.98 268.53L199.98 268.53Q201.53 268.53 202.29 267.82Q203.06 267.12 203.06 266.08L203.06 266.08Q203.06 265.28 202.52 264.74Q201.99 264.21 201.17 263.82Q200.35 263.43 199.49 263.12L199.49 263.12Q198.39 262.68 197.34 262.15Q196.29 261.62 195.61 260.77Q194.94 259.92 194.94 258.59L194.94 258.59Q194.94 257.33 195.57 256.33Q196.20 255.34 197.41 254.75Q198.62 254.16 200.32 254.16L200.32 254.16Q201.76 254.16 203.01 254.68Q204.27 255.20 205.16 255.94L205.16 255.94L203.89 257.59Q203.09 257.01 202.24 256.61Q201.39 256.20 200.35 256.20L200.35 256.20Q198.85 256.20 198.15 256.88Q197.44 257.56 197.44 258.48L197.44 258.48Q197.44 259.20 197.92 259.69Q198.39 260.18 199.17 260.51Q199.95 260.84 200.81 261.19L200.81 261.19Q201.68 261.50 202.52 261.88Q203.37 262.25 204.05 262.77Q204.73 263.29 205.15 264.05Q205.56 264.81 205.56 265.94L205.56 265.94Q205.56 267.20 204.92 268.27Q204.27 269.34 203.01 269.96Q201.76 270.57 199.89 270.57ZM215.61 270.57L215.61 270.57Q213.51 270.57 211.81 269.60Q210.11 268.62 209.12 266.79Q208.13 264.96 208.13 262.40L208.13 262.40Q208.13 260.47 208.70 258.95Q209.28 257.44 210.27 256.36Q211.27 255.28 212.53 254.72Q213.80 254.16 215.12 254.16L215.12 254.16Q217.14 254.16 218.52 255.05Q219.91 255.94 220.64 257.60Q221.37 259.26 221.37 261.50L221.37 261.50Q221.37 261.93 221.35 262.31Q221.32 262.68 221.26 263.00L221.26 263.00L210.72 263.00Q210.80 264.67 211.48 265.89Q212.16 267.12 213.28 267.80Q214.40 268.47 215.90 268.47L215.90 268.47Q217.05 268.47 217.99 268.14Q218.93 267.81 219.82 267.23L219.82 267.23L220.74 268.99Q219.73 269.65 218.47 270.11Q217.20 270.57 215.61 270.57ZM210.69 261.13L210.69 261.13L219.07 261.13Q219.07 258.77 218.05 257.51Q217.03 256.26 215.18 256.26L215.18 256.26Q214.09 256.26 213.12 256.84Q212.16 257.41 211.51 258.48Q210.86 259.54 210.69 261.13ZM227.88 270.20L225.23 270.20L225.23 254.56L227.39 254.56L227.65 256.84L227.71 256.84Q228.83 255.71 230.09 254.94Q231.34 254.16 232.95 254.16L232.95 254.16Q235.43 254.16 236.58 255.73Q237.73 257.30 237.73 260.29L237.73 260.29L237.73 270.20L235.11 270.20L235.11 260.64Q235.11 258.42 234.41 257.44Q233.70 256.46 232.15 256.46L232.15 256.46Q230.94 256.46 229.99 257.07Q229.04 257.67 227.88 258.85L227.88 258.85L227.88 270.20ZM247.70 270.57L247.70 270.57Q246.06 270.57 245.08 269.93Q244.10 269.28 243.68 268.10Q243.26 266.92 243.26 265.36L243.26 265.36L243.26 256.69L240.93 256.69L240.93 254.71L243.41 254.56L243.69 250.16L245.88 250.16L245.88 254.56L250.15 254.56L250.15 256.69L245.88 256.69L245.88 265.45Q245.88 266.86 246.42 267.65Q246.95 268.44 248.30 268.44L248.30 268.44Q248.73 268.44 249.22 268.31Q249.71 268.18 250.09 268.01L250.09 268.01L250.61 270.00Q249.94 270.23 249.20 270.40Q248.45 270.57 247.70 270.57ZM259.48 270.57L259.48 270.57Q257.37 270.57 255.68 269.60Q253.98 268.62 252.98 266.79Q251.99 264.96 251.99 262.40L251.99 262.40Q251.99 260.47 252.56 258.95Q253.14 257.44 254.13 256.36Q255.13 255.28 256.40 254.72Q257.66 254.16 258.99 254.16L258.99 254.16Q261.00 254.16 262.39 255.05Q263.77 255.94 264.50 257.60Q265.24 259.26 265.24 261.50L265.24 261.50Q265.24 261.93 265.21 262.31Q265.18 262.68 265.12 263.00L265.12 263.00L254.58 263.00Q254.67 264.67 255.34 265.89Q256.02 267.12 257.14 267.80Q258.27 268.47 259.76 268.47L259.76 268.47Q260.92 268.47 261.85 268.14Q262.79 267.81 263.68 267.23L263.68 267.23L264.60 268.99Q263.60 269.65 262.33 270.11Q261.06 270.57 259.48 270.57ZM254.55 261.13L254.55 261.13L262.93 261.13Q262.93 258.77 261.91 257.51Q260.89 256.26 259.04 256.26L259.04 256.26Q257.95 256.26 256.99 256.84Q256.02 257.41 255.37 258.48Q254.72 259.54 254.55 261.13ZM274.42 270.57L274.42 270.57Q272.47 270.57 271.01 269.62Q269.56 268.67 268.76 266.84Q267.97 265.02 267.97 262.40L267.97 262.40Q267.97 259.86 268.92 258.02Q269.87 256.17 271.41 255.17Q272.96 254.16 274.74 254.16L274.74 254.16Q276.12 254.16 277.12 254.63Q278.11 255.11 279.15 255.97L279.15 255.97L279.00 253.29L279.00 247.28L281.65 247.28L281.65 270.20L279.49 270.20L279.26 268.36L279.18 268.36Q278.25 269.28 277.04 269.93Q275.84 270.57 274.42 270.57ZM275.00 268.36L275.00 268.36Q276.09 268.36 277.07 267.82Q278.05 267.29 279.00 266.23L279.00 266.23L279.00 258.02Q278.02 257.12 277.10 256.75Q276.18 256.38 275.20 256.38L275.20 256.38Q273.96 256.38 272.94 257.14Q271.92 257.90 271.30 259.24Q270.68 260.58 270.68 262.37L270.68 262.37Q270.68 264.24 271.20 265.59Q271.72 266.95 272.68 267.65Q273.65 268.36 275.00 268.36ZM300.37 270.20L293.66 270.20L293.66 249.09L299.91 249.09Q302.07 249.09 303.70 249.61Q305.33 250.13 306.25 251.25Q307.17 252.37 307.17 254.24L307.17 254.24Q307.17 255.28 306.81 256.22Q306.45 257.15 305.76 257.83Q305.07 258.51 304.09 258.82L304.09 258.82L304.09 258.97Q305.96 259.31 307.17 260.58Q308.38 261.85 308.38 264.01L308.38 264.01Q308.38 266.08 307.36 267.45Q306.33 268.82 304.53 269.51Q302.73 270.20 300.37 270.20L300.37 270.20ZM296.31 251.19L296.31 258.05L299.45 258.05Q302.19 258.05 303.37 257.12Q304.55 256.20 304.55 254.59L304.55 254.59Q304.55 252.72 303.30 251.96Q302.04 251.19 299.57 251.19L299.57 251.19L296.31 251.19ZM296.31 260.12L296.31 268.07L300.00 268.07Q302.71 268.07 304.23 267.06Q305.76 266.05 305.76 263.92L305.76 263.92Q305.76 261.93 304.26 261.03Q302.76 260.12 300.00 260.12L300.00 260.12L296.31 260.12ZM312.07 276.94L312.07 276.94Q311.52 276.94 311.06 276.85Q310.60 276.77 310.22 276.62L310.22 276.62L310.74 274.52Q310.97 274.61 311.29 274.69Q311.60 274.78 311.95 274.78L311.95 274.78Q313.28 274.78 314.12 273.81Q314.97 272.85 315.46 271.41L315.46 271.41L315.81 270.23L309.53 254.56L312.27 254.56L315.44 263.23Q315.81 264.27 316.20 265.42Q316.59 266.57 316.99 267.67L316.99 267.67L317.13 267.67Q317.45 266.57 317.78 265.43Q318.11 264.30 318.40 263.23L318.40 263.23L321.22 254.56L323.79 254.56L317.91 271.52Q317.36 273.05 316.59 274.28Q315.81 275.50 314.72 276.22Q313.62 276.94 312.07 276.94ZM333.41 270.20L330.73 270.20L337.87 249.09L340.84 249.09L348.01 270.20L345.19 270.20L341.50 258.39Q340.92 256.58 340.40 254.84Q339.89 253.09 339.37 251.25L339.37 251.25L339.25 251.25Q338.76 253.09 338.23 254.84Q337.70 256.58 337.15 258.39L337.15 258.39L333.41 270.20ZM344.18 263.75L334.44 263.75L334.44 261.65L344.18 261.65L344.18 263.75ZM353.42 270.20L350.77 270.20L350.77 254.56L352.93 254.56L353.19 256.84L353.25 256.84Q354.37 255.71 355.63 254.94Q356.88 254.16 358.49 254.16L358.49 254.16Q360.97 254.16 362.12 255.73Q363.27 257.30 363.27 260.29L363.27 260.29L363.27 270.20L360.65 270.20L360.65 260.64Q360.65 258.42 359.95 257.44Q359.24 256.46 357.68 256.46L357.68 256.46Q356.48 256.46 355.52 257.07Q354.57 257.67 353.42 258.85L353.42 258.85L353.42 270.20ZM372.43 270.57L372.43 270.57Q370.79 270.57 369.25 269.96Q367.71 269.34 366.61 268.41L366.61 268.41L367.88 266.66Q368.92 267.49 370.01 268.01Q371.11 268.53 372.52 268.53L372.52 268.53Q374.07 268.53 374.84 267.82Q375.60 267.12 375.60 266.08L375.60 266.08Q375.60 265.28 375.07 264.74Q374.53 264.21 373.71 263.82Q372.89 263.43 372.03 263.12L372.03 263.12Q370.93 262.68 369.88 262.15Q368.83 261.62 368.15 260.77Q367.48 259.92 367.48 258.59L367.48 258.59Q367.48 257.33 368.11 256.33Q368.74 255.34 369.95 254.75Q371.16 254.16 372.86 254.16L372.86 254.16Q374.30 254.16 375.56 254.68Q376.81 255.20 377.70 255.94L377.70 255.94L376.43 257.59Q375.63 257.01 374.78 256.61Q373.93 256.20 372.89 256.20L372.89 256.20Q371.39 256.20 370.69 256.88Q369.98 257.56 369.98 258.48L369.98 258.48Q369.98 259.20 370.46 259.69Q370.93 260.18 371.71 260.51Q372.49 260.84 373.35 261.19L373.35 261.19Q374.22 261.50 375.07 261.88Q375.92 262.25 376.59 262.77Q377.27 263.29 377.69 264.05Q378.10 264.81 378.10 265.94L378.10 265.94Q378.10 267.20 377.46 268.27Q376.81 269.34 375.56 269.96Q374.30 270.57 372.43 270.57ZM384.47 270.20L381.82 270.20L381.82 247.28L384.47 247.28L384.47 253.55L384.35 256.78Q385.45 255.68 386.69 254.92Q387.92 254.16 389.54 254.16L389.54 254.16Q392.01 254.16 393.17 255.73Q394.32 257.30 394.32 260.29L394.32 260.29L394.32 270.20L391.70 270.20L391.70 260.64Q391.70 258.42 390.99 257.44Q390.29 256.46 388.73 256.46L388.73 256.46Q387.52 256.46 386.57 257.07Q385.62 257.67 384.47 258.85L384.47 258.85L384.47 270.20ZM412.06 270.20L409.41 270.20L409.41 262.02L403.07 249.09L405.90 249.09L408.63 255.05Q409.15 256.23 409.64 257.36Q410.13 258.48 410.71 259.69L410.71 259.69L410.82 259.69Q411.40 258.48 411.92 257.36Q412.43 256.23 412.95 255.05L412.95 255.05L415.66 249.09L418.42 249.09L412.06 262.02L412.06 270.20ZM422.40 270.57L422.40 270.57Q421.10 270.57 420.07 270.06Q419.03 269.54 418.44 268.54Q417.85 267.55 417.85 266.14L417.85 266.14Q417.85 263.58 420.14 262.21Q422.43 260.84 427.44 260.29L427.44 260.29Q427.44 259.28 427.16 258.38Q426.89 257.47 426.20 256.91Q425.51 256.35 424.21 256.35L424.21 256.35Q422.86 256.35 421.66 256.88Q420.47 257.41 419.52 258.02L419.52 258.02L418.51 256.20Q419.23 255.74 420.18 255.27Q421.13 254.79 422.25 254.48Q423.38 254.16 424.64 254.16L424.64 254.16Q426.55 254.16 427.74 254.96Q428.94 255.77 429.50 257.20Q430.06 258.62 430.06 260.58L430.06 260.58L430.06 270.20L427.90 270.20L427.67 268.33L427.58 268.33Q426.49 269.25 425.18 269.91Q423.87 270.57 422.40 270.57ZM423.15 268.44L423.15 268.44Q424.27 268.44 425.29 267.92Q426.32 267.41 427.44 266.40L427.44 266.40L427.44 262.05Q424.82 262.34 423.26 262.87Q421.71 263.40 421.04 264.17Q420.38 264.93 420.38 265.97L420.38 265.97Q420.38 267.32 421.19 267.88Q422.00 268.44 423.15 268.44ZM440.34 270.57L440.34 270.57Q438.38 270.57 436.93 269.62Q435.47 268.67 434.68 266.84Q433.89 265.02 433.89 262.40L433.89 262.40Q433.89 259.86 434.84 258.02Q435.79 256.17 437.33 255.17Q438.87 254.16 440.66 254.16L440.66 254.16Q442.04 254.16 443.03 254.63Q444.03 255.11 445.06 255.97L445.06 255.97L444.92 253.29L444.92 247.28L447.57 247.28L447.57 270.20L445.41 270.20L445.18 268.36L445.09 268.36Q444.17 269.28 442.96 269.93Q441.75 270.57 440.34 270.57ZM440.92 268.36L440.92 268.36Q442.01 268.36 442.99 267.82Q443.97 267.29 444.92 266.23L444.92 266.23L444.92 258.02Q443.94 257.12 443.02 256.75Q442.10 256.38 441.12 256.38L441.12 256.38Q439.88 256.38 438.86 257.14Q437.84 257.90 437.22 259.24Q436.60 260.58 436.60 262.37L436.60 262.37Q436.60 264.24 437.12 265.59Q437.63 266.95 438.60 267.65Q439.56 268.36 440.92 268.36ZM456.47 270.57L456.47 270.57Q455.17 270.57 454.14 270.06Q453.10 269.54 452.51 268.54Q451.92 267.55 451.92 266.14L451.92 266.14Q451.92 263.58 454.21 262.21Q456.50 260.84 461.51 260.29L461.51 260.29Q461.51 259.28 461.24 258.38Q460.96 257.47 460.27 256.91Q459.58 256.35 458.28 256.35L458.28 256.35Q456.93 256.35 455.73 256.88Q454.54 257.41 453.59 258.02L453.59 258.02L452.58 256.20Q453.30 255.74 454.25 255.27Q455.20 254.79 456.32 254.48Q457.45 254.16 458.72 254.16L458.72 254.16Q460.62 254.16 461.81 254.96Q463.01 255.77 463.57 257.20Q464.13 258.62 464.13 260.58L464.13 260.58L464.13 270.20L461.97 270.20L461.74 268.33L461.65 268.33Q460.56 269.25 459.25 269.91Q457.94 270.57 456.47 270.57ZM457.22 268.44L457.22 268.44Q458.34 268.44 459.36 267.92Q460.39 267.41 461.51 266.40L461.51 266.40L461.51 262.05Q458.89 262.34 457.33 262.87Q455.78 263.40 455.12 264.17Q454.45 264.93 454.45 265.97L454.45 265.97Q454.45 267.32 455.26 267.88Q456.07 268.44 457.22 268.44ZM475.53 270.20L472.45 270.20L466.81 254.56L469.54 254.56L472.48 263.46Q472.86 264.61 473.22 265.78Q473.58 266.95 473.92 268.07L473.92 268.07L474.07 268.07Q474.44 266.95 474.80 265.78Q475.16 264.61 475.51 263.46L475.51 263.46L478.47 254.56L481.06 254.56L475.53 270.20Z" data-element="slogan" data-text-path="" data-text="Presented By Ansh Yadav" data-font-family="CN Noto Sans" fill="#000000" fill-opacity="1"></path></g></g></svg>