<?xml version="1.0" standalone="no"?>
<!DOCTYPE svg PUBLIC "-//W3C//DTD SVG 20010904//EN"
 "http://www.w3.org/TR/2001/REC-SVG-20010904/DTD/svg10.dtd">
<svg version="1.0" xmlns="http://www.w3.org/2000/svg"
 width="512.000000pt" height="512.000000pt" viewBox="0 0 512.000000 512.000000"
 preserveAspectRatio="xMidYMid meet">

<g transform="translate(0.000000,512.000000) scale(0.100000,-0.100000)"
fill="#000000" stroke="none">
<path d="M2278 5100 c-35 -27 -48 -75 -48 -175 l0 -81 -32 -12 c-110 -40 -256
-169 -385 -341 -2 -3 -17 11 -33 31 -58 70 -91 78 -311 78 -218 0 -250 -8
-303 -71 -57 -67 -56 -54 -56 -631 l0 -533 -81 -80 c-232 -229 -324 -475 -323
-865 0 -263 37 -447 129 -650 24 -52 65 -153 90 -225 109 -304 233 -494 484
-745 135 -134 243 -223 396 -325 306 -204 560 -309 1000 -416 213 -51 224 -53
365 -53 179 0 278 22 425 94 181 88 399 274 518 442 103 144 186 341 222 528
34 175 28 556 -11 648 -27 67 -131 76 -171 15 -15 -22 -15 -39 -3 -183 33
-397 -35 -676 -225 -926 -141 -184 -374 -350 -565 -401 -45 -12 -103 -18 -185
-18 -105 0 -140 5 -280 39 -343 82 -505 137 -710 240 -438 222 -819 580 -991
931 -37 77 -44 100 -44 152 0 171 71 330 208 469 89 89 195 161 362 244 170
85 286 166 405 285 95 95 196 229 244 323 21 42 22 42 64 36 82 -12 270 -56
346 -81 91 -31 205 -86 246 -121 27 -23 34 -24 90 -16 104 15 283 10 350 -10
158 -48 331 -177 404 -302 87 -150 105 -165 172 -145 71 21 87 86 43 174 -71
140 -182 264 -322 357 -22 15 -22 16 -7 85 8 39 15 94 15 123 l0 52 55 0 c46
0 60 4 80 24 36 36 42 73 19 115 -23 43 -64 60 -145 60 -54 1 -57 3 -69 32 -7
17 -30 56 -50 88 l-37 57 34 39 c44 52 46 104 4 146 -44 44 -95 41 -151 -9
l-43 -38 -63 33 c-34 19 -95 42 -135 52 l-73 19 61 39 c93 60 200 92 356 104
73 6 142 15 155 20 44 17 52 62 52 274 0 304 3 301 -300 292 -107 -4 -205 -9
-216 -13 -18 -5 -28 4 -60 58 -86 144 -226 291 -342 359 l-61 36 39 58 c22 33
42 71 45 86 13 60 -55 127 -114 114 -38 -8 -58 -28 -116 -118 -40 -63 -54 -77
-70 -72 -11 2 -59 5 -107 5 l-88 0 0 79 c0 68 -3 84 -23 106 -31 37 -93 44
-129 15z m366 -415 c134 -35 279 -141 371 -270 25 -34 45 -67 45 -72 0 -5 -26
-16 -57 -23 -236 -52 -489 -185 -638 -334 -152 -152 -258 -367 -281 -567 -4
-32 -8 -59 -10 -59 -1 0 -35 17 -76 39 -40 21 -95 47 -121 56 l-48 18 3 301 3
301 39 95 c112 272 292 457 502 515 67 18 198 18 268 0z m-1014 -723 l0 -439
-97 -6 c-54 -3 -126 -15 -160 -25 l-63 -20 0 464 0 464 160 0 160 0 0 -438z
m1988 136 l-3 -93 -74 -7 c-345 -35 -615 -242 -751 -577 -29 -70 -77 -249 -82
-306 -4 -37 -5 -37 -205 -2 -134 23 -145 27 -189 63 l-47 39 7 95 c10 155 63
315 144 432 38 55 146 160 203 199 221 150 556 240 917 247 l83 2 -3 -92z
m-393 -654 c211 -54 360 -268 342 -488 -3 -37 -8 -70 -10 -73 -3 -2 -33 4 -68
14 -49 14 -102 18 -224 19 l-160 1 -93 46 c-51 25 -98 47 -104 49 -29 10 34
273 93 391 l29 57 68 0 c37 0 95 -7 127 -16z m-1469 -159 c133 -44 288 -137
401 -239 l46 -42 -27 -50 c-44 -81 -119 -174 -213 -265 -110 -106 -171 -148
-354 -241 -79 -41 -172 -93 -206 -116 -155 -106 -274 -233 -354 -378 -23 -41
-42 -74 -44 -74 -2 0 -17 42 -34 93 -50 156 -65 262 -65 457 0 196 17 294 74
436 84 211 275 390 466 439 85 21 211 13 310 -20z"/>
<path d="M4079 2091 c-40 -40 -40 -89 0 -133 24 -27 36 -33 71 -33 35 0 47 6
72 34 26 29 30 39 25 75 -12 84 -108 117 -168 57z"/>
<path d="M1594 1361 c-59 -36 -65 -112 -12 -156 39 -33 87 -33 127 1 25 21 31
33 31 66 0 50 -13 74 -50 93 -38 20 -58 19 -96 -4z"/>
<path d="M1842 1095 c-36 -30 -45 -69 -27 -112 15 -36 158 -147 298 -232 203
-122 537 -257 668 -268 54 -5 60 -4 88 25 23 22 31 40 31 66 0 61 -29 82 -176
126 -264 79 -481 189 -702 356 -97 73 -131 81 -180 39z"/>
</g>
</svg>
