<svg version="1.1" id="Layer_1" xmlns="http://www.w3.org/2000/svg" xmlns:xlink="http://www.w3.org/1999/xlink" x="0px" y="0px"
	 width="100%" viewBox="0 0 211 283" enable-background="new 0 0 211 283" xml:space="preserve">
<path fill="#FFFEFE" opacity="1.000000" stroke="none" 
	d="
M212.000000,105.000000 
	C212.000000,163.637222 211.968979,221.774490 212.082901,279.911499 
	C212.089249,283.139679 211.699860,284.114960 208.092163,284.107208 
	C140.293472,283.961487 72.494347,283.971069 4.695556,284.088867 
	C1.442191,284.094513 0.928658,283.192871 0.931398,280.199127 
	C1.015405,188.412369 1.013333,96.625496 0.938856,4.838712 
	C0.936500,1.935026 1.310484,0.898531 4.657719,0.904785 
	C72.623055,1.031781 140.588745,1.029381 208.554108,0.906142 
	C211.683716,0.900468 212.081238,1.715932 212.071732,4.550968 
	C211.959991,37.867020 212.000000,71.183578 212.000000,105.000000 
z"/>
<path fill="#F8F3F1" opacity="1.000000" stroke="none" 
	d="
M194.995697,160.003052 
	C186.369476,180.910431 172.303558,196.405670 153.071777,207.543106 
	C138.287659,216.104797 122.238762,220.133514 105.523872,219.784393 
	C80.665428,219.265167 58.663612,210.921799 40.436588,193.119720 
	C26.184502,179.199921 16.615570,162.967682 12.758169,143.506439 
	C8.062840,119.817696 11.511236,97.207558 23.535845,76.244484 
	C34.572365,57.003990 50.778961,43.269165 71.301697,35.015167 
	C79.865662,31.570839 88.969749,29.833715 98.301781,28.840256 
	C116.778755,26.873259 133.977097,30.780296 150.123016,39.168995 
	C178.329269,53.823681 195.176849,77.283981 200.786911,108.449318 
	C203.930313,125.911598 201.996338,143.130722 194.995697,160.003052 
z"/>
<path fill="#362439" opacity="1.000000" stroke="none" 
	d="
M162.638641,239.053345 
	C159.818970,239.288071 160.073578,236.345184 158.338364,235.729156 
	C156.760193,235.862198 157.325821,237.119461 157.214417,237.972305 
	C157.056503,239.181519 156.191742,239.040573 155.389725,239.035492 
	C154.341171,239.028854 154.038971,238.462280 154.072113,237.450592 
	C154.148178,235.129364 153.986694,232.793457 154.184860,230.486099 
	C154.283340,229.339493 153.121719,227.688690 154.985992,227.057556 
	C156.748932,226.460709 157.725754,227.515549 158.401291,229.065018 
	C158.644104,229.621933 159.250366,230.020370 159.635330,230.431885 
	C161.161179,229.995468 160.686874,228.827988 160.857162,227.922638 
	C161.074524,226.766983 162.014084,226.997101 162.791885,226.989609 
	C163.564575,226.982162 164.113632,227.374237 163.959137,228.181747 
	C163.272537,231.770538 165.243713,235.587967 162.638641,239.053345 
z"/>
<path fill="#2B1A2E" opacity="1.000000" stroke="none" 
	d="
M90.145462,228.997498 
	C90.141670,231.378571 90.338547,233.396500 90.069901,235.350418 
	C89.901466,236.575500 91.404503,238.492645 88.988182,239.021072 
	C87.020050,239.451508 86.523331,237.829605 85.788933,236.555878 
	C85.470459,236.003525 85.048599,235.510757 84.603027,234.892929 
	C83.267670,235.405594 83.493225,236.472458 83.543472,237.305191 
	C83.624557,238.648773 82.992714,239.091202 81.798279,239.017807 
	C80.255684,238.922989 80.631905,237.778198 80.634903,236.840820 
	C80.642319,234.518173 80.547371,232.189026 80.699089,229.875977 
	C80.761925,228.918243 79.680099,227.442245 81.554497,227.018906 
	C83.129211,226.663239 83.947617,227.506531 84.579712,228.869461 
	C85.046005,229.874863 85.823227,230.736069 86.440460,231.630432 
	C88.193230,230.341965 85.729248,227.635284 88.416504,227.030670 
	C89.517441,226.782974 90.408234,227.163528 90.145462,228.997498 
z"/>
<path fill="#271A33" opacity="1.000000" stroke="none" 
	d="
M47.193390,226.980774 
	C53.059971,227.239975 56.167156,231.560181 54.323250,236.475250 
	C53.080204,239.788681 50.067284,239.046753 47.506664,239.030029 
	C44.557640,239.010773 45.746422,236.601212 45.874828,235.355316 
	C46.161674,232.572220 44.515591,229.552597 47.193390,226.980774 
z"/>
<path fill="#341E33" opacity="1.000000" stroke="none" 
	d="
M114.408905,239.065811 
	C112.674721,239.138382 111.834579,238.845901 111.972893,237.163452 
	C112.134987,235.191711 111.882133,233.183777 112.073074,231.217163 
	C112.241837,229.479080 110.611313,226.599304 114.619156,226.908325 
	C117.610710,227.138992 120.113831,227.273071 120.326622,231.340240 
	C120.707428,238.618820 120.795715,238.726852 114.408905,239.065811 
z"/>
<path fill="#322237" opacity="1.000000" stroke="none" 
	d="
M172.849365,230.278625 
	C171.776016,229.906158 170.964859,229.255142 170.280380,230.065186 
	C169.635773,230.827972 170.561737,231.176224 171.004852,231.497879 
	C171.527390,231.877151 172.196976,232.046051 172.770691,232.364105 
	C174.267273,233.193756 175.583923,234.127609 175.264114,236.187744 
	C175.023621,237.736938 173.951767,238.480789 172.653458,238.836029 
	C170.833542,239.334000 168.726212,239.398376 167.565414,237.836914 
	C164.867569,234.207809 169.595261,236.511322 169.920975,234.949234 
	C170.061279,233.848572 168.901215,233.581223 168.163345,233.048599 
	C166.766602,232.040405 166.244553,230.731033 166.880539,229.169769 
	C167.600067,227.403458 169.204132,226.978088 170.952240,226.957169 
	C172.700531,226.936218 174.451431,227.303940 175.052399,229.069885 
	C175.589508,230.648239 174.100067,230.314728 172.849365,230.278625 
z"/>
<path fill="#3A2437" opacity="1.000000" stroke="none" 
	d="
M60.270821,238.771515 
	C58.248947,239.172363 56.608170,239.399338 56.965885,236.679306 
	C57.157932,235.219009 56.850357,233.693085 57.041813,232.232635 
	C57.266346,230.519882 55.921104,227.987335 57.632694,227.261856 
	C59.783478,226.350189 62.539055,226.411591 64.745659,228.876923 
	C66.207634,231.737137 65.463806,234.559387 65.441780,237.198685 
	C65.407990,241.247711 62.560524,239.290527 60.270821,238.771515 
z"/>
<path fill="#2A1D37" opacity="1.000000" stroke="none" 
	d="
M29.172667,237.915314 
	C27.613409,239.176590 25.748369,240.451096 26.312656,237.147278 
	C26.812254,234.222214 27.982542,231.417618 28.701708,228.521362 
	C29.008333,227.286514 29.649120,226.969406 30.776981,226.945480 
	C32.126945,226.916870 32.929474,227.296188 33.104919,228.813354 
	C33.236355,229.949936 33.796307,231.030075 34.027176,232.163513 
	C34.474392,234.359039 36.552402,236.984634 35.298481,238.573975 
	C33.512974,240.837051 32.611084,236.337311 30.553032,236.861725 
	C30.097029,236.977921 29.696581,237.312134 29.172667,237.915314 
z"/>
<path fill="#322136" opacity="1.000000" stroke="none" 
	d="
M141.239563,238.925812 
	C142.021057,235.986008 142.870544,233.342926 143.819168,230.735916 
	C144.371796,229.217194 143.805298,226.857941 146.636230,226.937225 
	C149.466278,227.016479 148.726868,229.440964 149.285995,230.926590 
	C150.090866,233.065247 150.565216,235.325836 151.288971,237.498291 
	C151.847763,239.175583 150.673920,238.946060 149.393692,239.089508 
	C146.466705,238.800079 143.927124,240.256149 141.239563,238.925812 
z"/>
<path fill="#2A1C36" opacity="1.000000" stroke="none" 
	d="
M69.249344,239.333771 
	C68.966698,239.179901 68.549408,239.022552 68.326736,239.010895 
	C66.670097,237.398727 67.861946,236.065933 68.732735,234.333908 
	C69.543579,232.102997 70.277527,230.246857 70.750679,228.326462 
	C71.086281,226.964294 71.987282,226.945847 72.989868,226.978928 
	C73.785576,227.005157 74.636574,226.934494 74.939827,228.038254 
	C75.863594,231.400513 76.973160,234.718033 77.735558,238.114655 
	C77.978844,239.198547 76.622108,238.936554 75.482574,239.033905 
	C73.159042,238.200027 71.397469,239.484589 69.249344,239.333771 
z"/>
<path fill="#281D33" opacity="1.000000" stroke="none" 
	d="
M96.378754,239.432159 
	C94.790207,238.954895 93.264847,239.260239 93.581619,237.089462 
	C93.816963,235.476685 93.377007,233.746307 93.719788,232.173355 
	C94.095734,230.448227 92.122871,227.807541 94.811401,227.108047 
	C97.275543,226.466980 100.151283,226.491089 101.941193,229.724945 
	C102.783325,231.796997 102.574959,233.635269 102.428787,235.404449 
	C102.148125,238.801483 100.298523,240.426071 96.378754,239.432159 
z"/>
<path fill="#3D1F2B" opacity="1.000000" stroke="none" 
	d="
M178.151428,232.999451 
	C178.150970,231.542648 178.113770,230.547699 178.160080,229.556686 
	C178.209244,228.505005 177.640106,227.106125 179.510818,226.972092 
	C181.285477,226.844955 181.167664,228.009750 181.171844,229.217361 
	C181.175629,230.304611 180.858078,231.760986 182.609589,231.802475 
	C184.373291,231.844238 184.122559,230.393387 184.128143,229.296890 
	C184.134140,228.116058 183.934677,226.914185 185.715302,226.975006 
	C187.583435,227.038818 187.123337,228.432190 187.138641,229.498077 
	C187.174316,231.980591 187.140900,234.464035 187.155060,236.946976 
	C187.160873,237.964310 187.221649,238.989075 185.774658,239.016510 
	C184.557205,239.039597 184.084656,238.509811 184.105957,237.225555 
	C184.125519,236.047211 184.675537,234.203949 182.615417,234.232819 
	C180.549576,234.261734 181.195694,236.108261 181.198517,237.277969 
	C181.201584,238.547165 180.774368,239.085526 179.524200,239.027283 
	C178.088791,238.960403 178.118393,237.972473 178.142914,236.939133 
	C178.170395,235.781021 178.150650,234.621796 178.151428,232.999451 
z"/>
<path fill="#362135" opacity="1.000000" stroke="none" 
	d="
M125.469254,232.193817 
	C124.458961,230.427048 123.652573,228.983917 122.537483,226.988327 
	C125.979500,227.092728 129.130127,229.633316 132.266098,226.898743 
	C131.055084,230.563721 128.374496,233.374496 129.154617,237.253754 
	C129.399292,238.470383 128.813004,239.085342 127.519279,239.031433 
	C126.054489,238.970428 126.165924,237.974396 126.111137,236.949478 
	C126.031975,235.468567 125.825386,233.994446 125.469254,232.193817 
z"/>
<path fill="#ECEAE2" opacity="1.000000" stroke="none" 
	d="
M68.607506,234.120483 
	C68.612572,235.413040 68.304001,236.839447 68.049744,238.632553 
	C67.931938,241.788849 66.840317,243.718903 63.724430,243.959076 
	C60.075745,244.240295 61.566174,240.983109 60.267563,239.198425 
	C60.543713,238.506943 59.610538,236.311737 60.970951,237.370804 
	C64.597023,240.193695 65.290390,240.290970 64.015106,235.396103 
	C63.678646,234.104660 65.541618,231.979980 65.053436,229.520203 
	C66.533089,230.152084 65.917831,231.726120 66.038673,233.107407 
	C66.180542,234.729050 66.967056,235.003036 68.607506,234.120483 
z"/>
<path fill="#FFF6ED" opacity="1.000000" stroke="none" 
	d="
M135.841080,234.249283 
	C137.809784,237.164154 139.206833,240.069336 139.316803,243.615372 
	C137.406433,244.426178 135.790100,240.827164 133.695587,243.371002 
	C132.908234,244.327240 131.818985,242.934311 132.115356,241.930511 
	C132.915009,239.222137 132.789398,236.064346 135.841080,234.249283 
z"/>
<path fill="#E8ECEF" opacity="1.000000" stroke="none" 
	d="
M95.992790,239.597565 
	C101.726578,238.497116 102.445053,237.526031 102.138809,230.466064 
	C104.174072,233.484329 102.882240,237.185211 102.743996,240.728256 
	C102.660332,242.872437 100.719559,243.998062 98.395256,243.961685 
	C95.437317,243.915375 96.150902,241.711334 95.992790,239.597565 
z"/>
<path fill="#F9EFE6" opacity="1.000000" stroke="none" 
	d="
M68.978203,239.590820 
	C71.036087,239.807159 72.157295,233.901077 74.935974,238.686554 
	C73.874031,240.471252 77.506042,243.906265 72.856720,244.050766 
	C69.718147,244.148300 68.625267,242.933304 68.978203,239.590820 
z"/>
<path fill="#FEF7ED" opacity="1.000000" stroke="none" 
	d="
M141.096619,239.028381 
	C142.516556,238.933472 143.811630,239.683273 144.990921,237.875198 
	C146.436783,235.658478 147.626175,236.787521 148.759766,238.849960 
	C148.699203,240.638306 149.844360,242.774979 148.008163,243.599136 
	C145.639160,244.662430 145.361481,241.788834 144.043182,240.790604 
	C142.213028,240.823959 143.664963,243.406174 141.803680,243.432755 
	C140.378708,242.389282 141.233383,240.804108 141.096619,239.028381 
z"/>
<path fill="#FDCB01" opacity="1.000000" stroke="none" 
	d="
M24.229259,145.986496 
	C24.627684,143.563065 23.208441,141.771942 22.979088,139.382858 
	C22.092430,138.119171 21.813025,136.978638 21.226902,135.592560 
	C20.774189,134.609268 20.560097,133.920715 20.455643,132.828125 
	C20.720339,129.254196 20.973034,126.050392 20.214613,122.493393 
	C19.671661,111.555984 22.927893,101.758072 26.812712,92.205772 
	C35.086658,71.861153 48.848667,56.372784 68.923592,46.221649 
	C74.286240,44.793789 79.011238,42.652069 84.027672,41.442425 
	C116.706596,33.562366 145.061127,41.553265 168.616791,65.363869 
	C181.779968,78.669502 188.930023,95.166862 191.407272,113.743523 
	C192.070068,118.713669 192.405228,123.655930 192.340302,129.036865 
	C190.574524,150.388351 182.338882,168.427063 167.835571,183.635391 
	C161.032745,190.768906 153.636276,197.123734 144.330841,201.557495 
	C142.045074,202.197144 140.022156,202.519516 137.704193,204.022354 
	C136.848343,204.241837 136.623062,204.199265 136.567566,203.857605 
	C129.273178,205.008240 122.054604,207.472458 114.400604,208.209152 
	C74.915352,212.009598 37.862453,187.674850 25.974020,149.942413 
	C25.826199,149.473221 25.578674,149.035461 25.161438,148.287659 
	C24.510250,147.503784 24.530361,146.850983 24.229259,145.986496 
z"/>
<path fill="#1B1027" opacity="1.000000" stroke="none" 
	d="
M69.247086,46.927299 
	C44.573437,60.410801 29.470663,80.691719 23.077484,107.583015 
	C22.012280,112.063538 20.864239,116.546997 21.116859,121.657509 
	C21.816677,125.513283 21.367855,128.958710 21.311516,132.843399 
	C21.426126,133.649536 21.669273,134.003479 21.979546,134.571793 
	C21.940548,136.024994 22.067682,137.277679 21.746006,138.809357 
	C22.087053,145.613388 24.221186,151.700058 26.158808,157.841797 
	C26.601452,159.244858 28.431938,161.180679 26.107368,162.106979 
	C23.579456,163.114288 23.354795,160.514481 22.789549,158.900894 
	C11.788074,127.495590 16.306005,97.960747 35.647144,71.414230 
	C56.414951,42.909546 85.188637,29.664249 120.552208,33.110691 
	C155.928192,36.558334 186.962097,65.532433 193.931488,100.403320 
	C203.479614,148.176758 177.809830,194.869736 131.797791,210.305313 
	C97.713730,221.739410 66.913223,214.382919 41.086384,188.675903 
	C40.615444,188.207138 40.164032,187.715805 39.735165,187.208252 
	C38.702099,185.985641 36.791637,184.643784 38.382229,183.043579 
	C40.228378,181.186295 41.203949,183.588623 42.204113,184.650635 
	C49.105236,191.978577 56.801914,198.303223 65.879837,202.705963 
	C88.633446,213.741333 111.810814,214.631699 135.662598,205.010742 
	C136.165573,204.726776 136.327759,204.592346 136.748291,204.275955 
	C137.006607,204.093994 137.017685,204.055511 137.036987,204.060791 
	C138.700836,202.895584 140.641632,202.333984 142.718781,201.290924 
	C159.636032,192.292542 172.567810,179.599701 181.525024,163.110352 
	C186.947159,153.128723 190.431229,142.382523 191.053375,130.441803 
	C194.800812,87.700905 168.745926,46.818535 123.431664,38.584778 
	C106.534767,35.514557 90.399017,38.715591 74.684105,44.893993 
	C72.975517,45.565731 71.281525,46.221218 69.247086,46.927299 
z"/>
<path fill="#F8F1E0" opacity="1.000000" stroke="none" 
	d="
M21.969673,139.084717 
	C20.541409,137.857620 20.964228,136.512070 21.738007,134.975067 
	C23.271107,135.695496 22.919281,137.040253 22.943810,138.638535 
	C22.677965,139.028748 22.475534,139.043976 21.969673,139.084717 
z"/>
<path fill="#F8F1E0" opacity="1.000000" stroke="none" 
	d="
M24.100388,146.021759 
	C24.410807,146.246109 24.689606,146.798264 24.956795,147.671356 
	C24.653046,147.444702 24.360907,146.897125 24.100388,146.021759 
z"/>
<path fill="#E2D8C1" opacity="1.000000" stroke="none" 
	d="
M137.006104,203.926529 
	C136.855362,204.370117 136.704117,204.646225 136.278137,204.891769 
	C136.069824,204.615524 136.136230,204.369858 136.470001,203.841370 
	C136.737366,203.558548 137.005615,203.759064 137.006104,203.926529 
z"/>
<path fill="#CFC9C8" opacity="1.000000" stroke="none" 
	d="
M97.793190,236.410645 
	C97.144234,236.272736 96.763252,236.081879 96.707695,235.821533 
	C96.274101,233.790024 95.623383,231.685272 97.100861,229.829681 
	C97.586311,229.220032 98.453865,229.704926 98.744057,230.193695 
	C100.008743,232.323944 100.253380,234.445343 97.793190,236.410645 
z"/>
<path fill="#150918" opacity="1.000000" stroke="none" 
	d="
M95.381241,86.323334 
	C96.483688,83.072823 99.026428,81.172829 101.657959,79.442497 
	C104.975098,77.261345 107.925743,76.966743 109.391800,82.140472 
	C112.682343,77.828117 117.138550,76.422340 121.993240,75.992035 
	C124.242027,75.792702 126.425743,76.307930 127.652313,78.351181 
	C128.474716,79.721176 128.144318,81.246948 126.737717,82.335403 
	C125.433266,83.344810 124.432419,83.384888 123.594559,81.707794 
	C122.489372,79.495605 120.554657,79.425056 118.465668,80.016884 
	C117.323135,80.340591 116.941299,81.187553 116.962349,82.287048 
	C117.008965,84.722206 119.111206,85.079407 120.699402,85.731567 
	C128.457748,88.917397 128.441162,88.870956 129.410110,80.269104 
	C129.821304,76.618797 129.927963,72.981491 129.788559,69.310257 
	C129.734039,67.874741 127.607559,65.278961 131.066940,65.196434 
	C133.654709,65.134697 136.765686,65.399117 136.949173,69.084068 
	C137.151703,73.151611 136.995407,77.237022 136.995407,82.641548 
	C139.994263,78.506348 142.522507,75.724426 145.857391,73.850136 
	C150.210785,71.403427 152.677658,72.579720 152.770065,77.403809 
	C152.881012,83.194206 151.246368,88.945694 152.498718,94.797646 
	C152.860825,96.489647 151.078629,96.796852 149.806625,96.982971 
	C147.690842,97.292534 145.808502,96.918793 144.884445,94.622704 
	C143.446121,91.048782 144.172012,87.420227 144.510574,83.780907 
	C144.653336,82.246315 145.737259,79.985786 143.780594,79.376434 
	C142.152725,78.869484 141.126053,81.023132 140.219452,82.359253 
	C137.764862,85.976715 135.896164,89.820221 136.100143,94.371071 
	C136.163910,95.793694 138.115936,97.629601 135.425476,98.503761 
	C133.523773,99.121643 131.205612,99.705238 129.885971,97.847443 
	C128.523788,95.929771 127.999451,96.817917 126.725014,97.795143 
	C122.312569,101.178596 117.305481,101.650642 112.084648,100.103302 
	C110.432381,99.613617 109.110512,98.588928 109.053581,96.605118 
	C109.002441,94.823807 110.181503,93.878929 111.573219,93.230911 
	C113.710258,92.235855 114.470581,93.661354 115.212692,95.343842 
	C115.909813,96.924362 117.381706,97.317451 118.997131,97.026787 
	C120.308472,96.790833 121.027451,95.884979 121.090134,94.597900 
	C121.179008,92.773308 119.832176,91.845901 118.422356,91.382980 
	C114.915031,90.231339 111.427078,89.164436 109.460258,84.675827 
	C107.395638,89.358803 107.896294,93.597549 107.917702,97.741150 
	C107.928604,99.852234 108.840088,102.115189 105.251236,102.197899 
	C101.988838,102.273087 100.170052,101.099854 99.993454,97.749870 
	C99.817261,94.407326 100.243431,91.125694 100.774345,87.827637 
	C101.301865,84.550659 100.169052,83.603745 97.058029,86.105484 
	C96.423691,86.426025 96.100082,86.539116 95.381241,86.323334 
z"/>
<path fill="#140718" opacity="1.000000" stroke="none" 
	d="
M100.307266,137.619812 
	C98.562866,142.288284 95.896133,145.486877 91.621246,147.277252 
	C86.072845,149.601013 82.461128,148.817673 77.861153,144.139893 
	C73.848328,150.100891 60.154236,154.845444 53.631588,152.569458 
	C50.896927,151.615250 50.351231,149.377243 50.477356,146.964630 
	C50.927971,138.344635 52.511261,129.807404 52.180515,121.119637 
	C52.046795,117.607277 54.785648,118.853989 56.476723,119.247879 
	C57.951717,119.591454 58.877705,120.925018 60.891296,119.710503 
	C66.194336,116.511948 71.287338,117.347748 73.594200,121.258972 
	C75.973953,125.293777 74.551033,129.027298 69.190437,132.839355 
	C68.818855,133.103592 68.484543,133.420242 67.752975,134.028290 
	C70.835236,135.386444 73.903473,136.067291 76.365593,138.212418 
	C78.239998,129.180344 83.345238,124.197342 90.718208,123.894531 
	C95.783180,123.686508 98.646835,126.161209 100.332077,132.480255 
	C101.235291,134.289810 101.260925,135.742325 100.307266,137.619812 
z"/>
<path fill="#F6F0E7" opacity="1.000000" stroke="none" 
	d="
M69.399124,47.158546 
	C77.239799,41.376511 86.791382,38.767048 96.485390,37.301075 
	C132.724838,31.820778 165.746292,48.362160 182.662277,80.401627 
	C190.762817,95.744339 193.942200,112.207306 191.479950,129.780945 
	C191.153854,114.862549 188.757126,100.277824 181.980118,86.517120 
	C165.122681,52.288158 126.203880,33.550556 88.827339,41.500702 
	C82.293365,42.890511 76.362328,46.008030 69.399124,47.158546 
z"/>
<path fill="#140718" opacity="1.000000" stroke="none" 
	d="
M85.072113,101.180687 
	C85.234711,105.246758 82.076393,105.254028 79.887184,105.628311 
	C77.461571,106.043007 76.464104,103.801414 76.071495,101.831802 
	C75.576210,99.347145 75.185745,97.374527 71.810593,97.872246 
	C68.572342,98.349770 65.043968,97.701050 64.086670,102.307510 
	C63.713352,104.103928 64.474953,106.601822 62.090351,107.571938 
	C60.387505,108.264694 58.466511,108.531876 56.858795,107.319984 
	C55.017803,105.932259 54.785404,104.074951 55.729626,101.975792 
	C56.505650,100.250572 57.749020,98.692207 55.544323,96.730034 
	C54.271866,95.597549 54.688538,93.763885 57.147778,94.261528 
	C58.605011,94.556412 59.659073,94.458405 60.502357,93.041489 
	C63.979115,87.199715 68.025421,81.676270 70.585426,75.326317 
	C71.252747,73.671082 71.123741,71.618362 73.882645,72.068626 
	C76.244835,72.454147 78.574364,72.641838 79.128128,75.649078 
	C79.998650,80.376419 80.920166,85.094452 81.836929,89.813156 
	C82.184288,91.601021 82.578407,93.379807 83.033066,95.560974 
	C84.044662,96.988945 84.489052,98.267944 85.051414,99.863419 
	C85.171860,100.416565 85.193474,100.643402 85.072113,101.180687 
z"/>
<path fill="#160918" opacity="1.000000" stroke="none" 
	d="
M150.738251,138.384247 
	C147.859009,143.179352 143.448044,143.710114 140.102554,139.712296 
	C138.343796,137.610611 137.040573,135.127701 134.855057,131.780823 
	C134.855057,134.684601 134.694641,136.570007 134.895721,138.416046 
	C135.146164,140.715225 135.482544,142.790833 132.222382,143.065033 
	C129.204529,143.318848 127.245926,142.071594 127.018379,139.088547 
	C126.805138,136.293060 126.918495,133.423813 127.296066,130.642395 
	C128.059570,125.017853 128.125763,119.390671 128.096207,113.735565 
	C128.088486,112.259575 126.509468,109.599434 129.664383,109.528374 
	C132.012405,109.475494 134.734985,109.429382 135.408508,112.925537 
	C136.275421,117.425499 135.573425,121.870415 135.705597,126.657944 
	C138.677765,125.932457 139.599197,123.346718 141.061813,121.211761 
	C141.948685,119.917221 141.827515,116.454147 144.844803,119.064308 
	C146.815765,120.769325 149.218170,122.563560 146.817017,125.614861 
	C146.113754,126.508514 145.283432,127.508995 144.287125,127.930450 
	C139.186035,130.088257 141.717804,132.354446 144.095230,134.617508 
	C145.919968,136.354462 148.101379,137.488571 150.738251,138.384247 
z"/>
<path fill="#160918" opacity="1.000000" stroke="none" 
	d="
M101.616745,133.320267 
	C103.238609,126.935135 106.835426,122.989853 112.809830,121.352219 
	C120.366226,119.280960 126.509193,124.664978 125.534416,132.457779 
	C124.597351,139.949112 118.539841,145.366776 110.997711,145.440094 
	C105.800415,145.490616 103.323326,142.306198 101.905945,137.443756 
	C101.077232,136.040985 100.963539,134.912064 101.616745,133.320267 
z"/>
<path fill="#E5476A" opacity="1.000000" stroke="none" 
	d="
M114.320877,198.590942 
	C113.553535,198.840363 113.102158,198.889389 112.313156,198.881378 
	C110.270729,197.670883 108.193779,198.272461 106.080170,197.440079 
	C103.913765,195.929077 106.485443,191.682983 101.899544,191.837860 
	C99.221214,190.514984 97.436852,189.057526 99.476250,185.856689 
	C100.901085,184.878403 102.195137,184.867737 103.819786,184.697754 
	C105.390640,184.397675 105.468903,183.414780 105.723557,182.442993 
	C107.031662,177.451202 108.449646,176.859909 113.431458,179.518402 
	C113.722076,182.317978 113.334633,185.367188 117.714203,183.233398 
	C118.287514,182.344818 118.601707,181.706406 118.905334,180.636139 
	C120.300667,177.723251 122.333138,177.544571 125.045723,178.698029 
	C126.732185,183.507797 125.594177,188.170273 126.147675,193.178009 
	C126.529152,194.440552 126.490868,195.303391 126.179314,196.526031 
	C125.546028,197.179352 125.154961,197.475220 124.540619,197.877686 
	C121.093712,198.196060 117.834641,197.563385 114.320877,198.590942 
z"/>
<path fill="#F1C941" opacity="1.000000" stroke="none" 
	d="
M124.883438,160.697403 
	C126.206078,162.703629 127.171799,164.432816 127.025864,166.932587 
	C126.625824,167.638763 126.389786,168.022003 126.156113,168.799988 
	C125.949463,170.456558 125.916580,171.783035 126.007339,173.093628 
	C126.227768,176.276382 125.226753,178.266006 121.619934,178.003586 
	C118.993141,177.812485 118.643097,179.422989 118.869537,181.876801 
	C118.677788,182.762482 118.518135,183.263428 118.066437,184.063309 
	C115.486015,185.020935 113.924049,184.332657 113.387695,181.483521 
	C113.806824,178.669128 112.332695,178.561584 110.497887,178.445221 
	C105.483330,178.127243 105.043900,177.266663 107.083023,171.677689 
	C108.392754,170.709778 109.607353,170.362701 110.857056,169.394928 
	C112.610046,167.440292 111.637360,166.565506 110.006523,165.854401 
	C104.994537,163.668884 104.742691,162.549713 108.620758,158.219696 
	C112.959778,157.900330 116.945633,158.031006 121.331001,158.055847 
	C122.268341,158.136795 122.774559,158.292603 123.566406,158.788300 
	C124.262802,159.405304 124.529320,159.850494 124.883438,160.697403 
z"/>
<path fill="#170A18" opacity="1.000000" stroke="none" 
	d="
M151.348846,138.469559 
	C150.940018,138.635818 150.987793,138.677109 150.995514,138.708893 
	C150.905823,137.592590 150.763229,136.446121 150.721512,135.296021 
	C150.657516,133.531540 151.706314,132.588379 153.256790,132.054871 
	C154.755707,131.539108 155.704025,131.920670 156.362396,133.487320 
	C157.152802,135.368134 158.681030,136.339447 160.779266,135.743271 
	C161.958923,135.408112 162.976868,134.470184 162.784912,133.232361 
	C162.467453,131.185364 160.742065,130.377640 158.930634,129.813110 
	C157.980362,129.516953 157.013580,129.239731 156.112198,128.827332 
	C153.568665,127.663612 151.397614,125.882629 151.284409,122.989395 
	C151.161865,119.857147 153.243744,117.890007 156.059616,116.664124 
	C159.166718,115.311432 162.382111,114.633400 165.748291,115.060295 
	C167.639496,115.300140 169.355423,116.062241 169.624466,118.270302 
	C169.801727,119.725098 169.018982,120.828224 167.743958,121.500534 
	C165.605865,122.627930 165.470505,120.560127 164.519684,119.572350 
	C163.283997,118.288651 161.597824,118.113075 159.898376,118.833023 
	C158.874481,119.266769 158.260727,120.064629 158.373291,121.140656 
	C158.553406,122.862534 159.873962,123.594589 161.337646,124.143707 
	C163.193100,124.839798 165.122681,125.406013 166.865067,126.323143 
	C172.144211,129.101929 172.480118,133.887024 167.468887,137.203720 
	C162.542191,140.464432 157.170441,140.425308 151.348846,138.469559 
z"/>
<path fill="#160918" opacity="1.000000" stroke="none" 
	d="
M85.278259,101.717331 
	C84.929153,101.491142 84.965096,101.545097 84.997276,101.548981 
	C84.474838,100.019035 84.013695,98.472885 84.628052,96.381615 
	C85.226334,91.984558 86.306198,88.108902 86.161278,84.066978 
	C86.115593,82.792488 85.190025,80.605911 87.416672,80.405762 
	C89.461945,80.221909 91.865921,80.295242 93.057495,82.642601 
	C93.574371,83.660835 93.854660,84.799164 94.614197,85.938690 
	C95.281212,86.036644 95.576439,86.078850 96.309471,86.216988 
	C94.093025,90.232758 92.135422,94.337669 92.653725,99.298294 
	C92.805374,100.749680 94.441803,102.800056 92.144714,103.653091 
	C89.812492,104.519188 87.181305,104.836754 85.278259,101.717331 
z"/>
<path fill="#324252" opacity="1.000000" stroke="none" 
	d="
M124.232964,159.905304 
	C123.657944,159.965378 123.405899,159.791367 123.076553,159.372803 
	C118.215759,157.671005 113.326080,158.900894 108.283783,158.754059 
	C107.368729,161.564270 104.681885,164.585144 110.559372,164.686005 
	C113.311462,164.733231 115.417313,167.004486 112.312401,170.349579 
	C110.857529,169.630585 110.292213,167.985931 108.522911,167.925034 
	C105.749352,167.829605 104.833641,166.035110 104.728432,163.625626 
	C104.622726,161.204865 103.601250,160.173325 101.024208,160.101013 
	C97.231270,159.994614 93.469643,158.922791 89.273476,159.734467 
	C88.672409,159.641479 88.437767,159.568024 87.920074,159.258087 
	C87.632553,156.943970 89.513130,157.940079 90.094406,157.931808 
	C101.173462,157.773911 112.255623,157.788956 123.335648,157.907532 
	C123.791809,157.912399 125.389168,157.191299 125.063293,158.985046 
	C124.730621,159.283157 124.629745,159.496765 124.232964,159.905304 
z"/>
<path fill="#6A636E" opacity="1.000000" stroke="none" 
	d="
M125.736847,168.454956 
	C125.970116,167.673553 126.161758,167.433548 126.726349,167.311081 
	C126.878395,177.047394 126.791138,186.772949 126.320488,196.690979 
	C125.927246,196.193695 125.917397,195.503891 125.895905,194.469238 
	C125.053505,189.463333 125.742561,184.761826 125.486099,179.616272 
	C125.267143,175.726105 125.647247,172.310104 125.736847,168.454956 
z"/>
<path fill="#6C5E5F" opacity="1.000000" stroke="none" 
	d="
M105.823761,196.833130 
	C108.112770,197.133453 110.191200,196.414368 111.822937,198.505554 
	C104.141472,199.007370 96.306847,199.283188 88.183746,198.367294 
	C88.101318,197.838394 88.312759,197.622147 88.930061,197.203796 
	C94.675629,196.305023 100.029144,196.604019 105.823761,196.833130 
z"/>
<path fill="#3A4C66" opacity="1.000000" stroke="none" 
	d="
M89.302986,197.491028 
	C88.915962,197.836426 88.710121,197.876862 88.197075,197.985962 
	C85.750343,197.104248 85.994186,195.171280 85.989532,193.367950 
	C85.977097,188.552338 85.995003,183.736664 86.069252,178.456543 
	C86.394920,177.927231 86.652191,177.862381 87.205338,178.064758 
	C88.217537,179.517303 88.219666,180.849625 88.312576,182.554688 
	C88.355484,183.702911 88.327667,184.464172 88.339905,185.595123 
	C88.330383,188.595078 88.122299,191.228546 88.612907,194.177032 
	C88.945633,194.927002 89.131096,195.358414 89.402054,196.135864 
	C89.494270,196.713226 89.489220,196.949646 89.302986,197.491028 
z"/>
<path fill="#39496C" opacity="1.000000" stroke="none" 
	d="
M87.265854,177.689926 
	C86.933868,178.000610 86.535751,177.997604 86.336700,177.994843 
	C86.144096,171.781799 85.328430,165.549850 87.132919,159.197678 
	C87.637039,159.021637 87.718262,159.060104 87.728363,159.082642 
	C90.235077,162.310516 87.936935,165.851028 88.407272,169.218353 
	C88.702652,171.333054 88.555130,173.537247 88.119652,176.127350 
	C87.870506,176.837784 87.734169,177.108505 87.265854,177.689926 
z"/>
<path fill="#6D4659" opacity="1.000000" stroke="none" 
	d="
M114.451172,198.847656 
	C116.781586,195.180267 120.437180,197.488266 124.023239,197.665817 
	C121.334206,199.897217 118.034294,198.565659 114.451172,198.847656 
z"/>
<path fill="#FCF2D1" opacity="1.000000" stroke="none" 
	d="
M21.517057,133.016037 
	C21.143131,129.863449 21.103279,126.431313 21.124191,122.546906 
	C22.742334,125.558334 21.842884,129.175827 21.517057,133.016037 
z"/>
<path fill="#E2D8C1" opacity="1.000000" stroke="none" 
	d="
M142.642700,201.046402 
	C141.790695,203.058975 139.632111,203.378189 137.408142,204.127518 
	C137.844986,201.432617 140.225616,201.476959 142.642700,201.046402 
z"/>
<path fill="#B79007" opacity="1.000000" stroke="none" 
	d="
M101.595573,132.915741 
	C101.884300,134.040451 101.939980,135.152145 101.917160,136.675262 
	C101.407906,137.319977 100.977150,137.553299 100.332779,137.910339 
	C100.163956,136.589020 100.208763,135.143982 100.344856,133.273392 
	C100.749413,132.790680 101.058205,132.808990 101.595573,132.915741 
z"/>
<path fill="#C19806" opacity="1.000000" stroke="none" 
	d="
M84.562561,95.980881 
	C84.918922,97.504410 84.986572,99.059975 85.041840,101.084206 
	C83.421509,100.336273 83.300781,98.488281 83.047409,96.342247 
	C83.501236,95.977127 83.887550,95.995026 84.562561,95.980881 
z"/>
<path fill="#433C4D" opacity="1.000000" stroke="none" 
	d="
M124.012405,160.374176 
	C124.128868,159.801132 124.320679,159.502045 124.671982,159.136261 
	C126.079208,159.174774 125.584770,159.782318 125.144722,160.693817 
	C124.753654,160.902847 124.420700,160.775482 124.012405,160.374176 
z"/>
<path fill="#F8C601" opacity="1.000000" stroke="none" 
	d="
M84.678131,142.182083 
	C83.365654,137.743835 83.777802,133.918747 86.132126,130.366180 
	C87.098137,128.908508 88.266891,127.764923 90.182388,128.016174 
	C92.247528,128.287048 92.708092,129.974731 93.025223,131.611923 
	C93.785202,135.535385 93.205750,139.288132 90.761833,142.489822 
	C88.999084,144.799133 86.864784,145.738235 84.678131,142.182083 
z"/>
<path fill="#F3C201" opacity="1.000000" stroke="none" 
	d="
M58.288162,140.480621 
	C58.786324,138.312775 58.148312,135.536453 61.370773,136.196091 
	C64.831497,136.904480 69.008934,136.920151 69.892426,141.549088 
	C70.433228,144.382507 68.261063,145.642166 65.963066,146.469650 
	C59.887375,148.657486 58.006897,147.288925 58.288162,140.480621 
z"/>
<path fill="#EDBD02" opacity="1.000000" stroke="none" 
	d="
M59.423492,126.807869 
	C60.895267,123.833580 62.777691,121.962509 65.792084,123.648193 
	C67.767349,124.752769 67.902481,126.957535 66.959496,128.899628 
	C65.615997,131.666534 62.966290,133.489136 60.207363,132.739227 
	C57.680038,132.052231 59.732731,129.088425 59.423492,126.807869 
z"/>
<path fill="#E3B503" opacity="1.000000" stroke="none" 
	d="
M72.922195,95.793289 
	C68.441795,96.216248 66.619072,95.350716 69.685059,91.261856 
	C71.054169,89.435982 72.097244,87.365654 73.781227,85.484299 
	C73.946114,88.965126 77.254189,92.428856 72.922195,95.793289 
z"/>
<path fill="#FDCB01" opacity="1.000000" stroke="none" 
	d="
M136.004257,127.005356 
	C135.789993,127.164108 135.595810,127.351952 135.401627,127.539787 
	C135.500214,127.289886 135.598785,127.039993 135.878067,126.943130 
	C136.058762,127.096161 136.024338,127.034431 136.004257,127.005356 
z"/>
<path fill="#F6C501" opacity="1.000000" stroke="none" 
	d="
M118.298386,130.197601 
	C118.460251,133.697006 117.778946,136.564011 116.051903,139.122086 
	C115.095985,140.537979 113.850708,141.809860 111.985573,141.361588 
	C110.164413,140.923874 109.410316,139.308533 109.194298,137.595657 
	C108.817535,134.608154 108.739845,131.599686 110.237862,128.838730 
	C111.266167,126.943481 112.300606,124.799637 114.923645,124.999123 
	C117.789719,125.217094 117.867111,127.667862 118.298386,130.197601 
z"/>
<path fill="#01C394" opacity="1.000000" stroke="none" 
	d="
M87.244171,186.414261 
	C87.006447,185.298157 86.980194,184.556198 87.010803,183.443359 
	C87.522339,180.275726 87.827644,177.462967 91.785194,177.490295 
	C93.474205,177.501984 93.533714,175.776337 93.946754,174.546585 
	C94.338257,173.380981 94.987602,172.460190 96.372940,172.413116 
	C97.754295,172.366180 98.726700,173.190155 98.890762,174.374802 
	C99.377716,177.890991 102.095695,177.580078 104.849419,178.023743 
	C105.655518,178.363312 106.034966,178.666534 106.396683,179.417038 
	C106.544327,180.673141 106.032219,181.522110 106.279953,182.751343 
	C106.444969,183.486160 106.477310,183.912018 106.385216,184.647430 
	C106.168175,185.104767 106.025261,185.256012 105.587616,185.494431 
	C105.092987,185.558838 104.893105,185.536072 104.402557,185.450317 
	C103.381004,185.108231 102.634033,184.963470 101.585617,185.206146 
	C100.971939,185.431656 100.647621,185.609818 100.221855,186.083725 
	C97.772110,188.568024 100.330055,189.502914 101.581108,191.021240 
	C104.216309,191.400513 105.808319,192.067932 105.547737,195.066483 
	C105.256920,198.412888 102.923080,197.410660 101.177063,197.446060 
	C97.375481,197.523132 93.568199,197.584885 89.443039,197.049728 
	C89.002914,196.466202 88.838120,196.274597 88.458771,196.032181 
	C86.565369,193.022308 88.029251,189.812378 87.244171,186.414261 
z"/>
<path fill="#65423E" opacity="1.000000" stroke="none" 
	d="
M125.618881,168.297760 
	C125.939568,171.375244 125.967010,174.730148 125.967743,178.542389 
	C125.733200,179.179245 125.525360,179.358780 124.951904,179.348511 
	C122.984306,179.640839 120.244400,177.667770 120.014030,181.617645 
	C119.732658,182.127197 119.515602,182.267120 119.000732,182.159332 
	C118.026176,180.183014 115.488213,177.274307 119.597450,177.493179 
	C125.574684,177.811554 125.343155,174.477005 125.109390,170.520386 
	C125.071465,169.878479 125.248154,169.223907 125.618881,168.297760 
z"/>
<path fill="#372649" opacity="1.000000" stroke="none" 
	d="
M105.644363,184.902802 
	C105.724258,184.309860 105.754814,183.985657 105.804375,183.417877 
	C105.599228,182.670624 105.510635,182.142776 105.694717,181.206329 
	C105.789497,180.506546 105.752701,180.191727 105.684891,179.641235 
	C105.401764,178.825912 105.159904,178.242157 104.819794,177.189728 
	C104.431915,174.963242 104.334137,173.155441 105.057930,171.523727 
	C106.146004,169.070847 107.638687,168.352753 109.235916,171.493530 
	C105.794250,172.408661 107.259048,174.929184 107.273132,176.571945 
	C107.289833,178.520050 109.142174,177.799393 110.315598,178.073456 
	C111.723351,178.402252 114.318825,176.735535 113.959137,180.572723 
	C113.690979,181.118149 113.483109,181.232422 112.959732,181.182220 
	C112.888237,178.060760 110.645256,179.188019 109.292099,179.065704 
	C107.547600,178.908005 107.395439,180.172729 107.079933,181.572937 
	C106.683556,183.332047 108.740288,186.004242 105.034470,186.560913 
	C104.712730,186.175934 104.711708,185.991852 104.938187,185.654907 
	C105.310532,185.392044 105.455383,185.282059 105.644363,184.902802 
z"/>
<path fill="#0A6364" opacity="1.000000" stroke="none" 
	d="
M89.102989,196.972504 
	C93.359421,196.786179 97.597565,196.896484 101.836433,196.950394 
	C103.289818,196.968887 104.792076,197.122040 105.085831,194.955429 
	C105.388733,192.721420 104.092850,192.128311 102.114456,191.472656 
	C107.570984,189.031143 105.941139,193.353790 106.210007,196.469696 
	C100.983932,199.286926 95.433014,197.466293 89.574203,197.857635 
	C89.109528,197.612976 89.097260,197.429993 89.102989,196.972504 
z"/>
<path fill="#79234F" opacity="1.000000" stroke="none" 
	d="
M124.707146,179.600159 
	C124.811501,179.125900 125.036720,179.093109 125.601486,179.030029 
	C125.949181,183.723709 125.957329,188.447693 125.924866,193.648026 
	C123.858055,189.555679 125.608849,184.703705 124.707146,179.600159 
z"/>
<path fill="#703647" opacity="1.000000" stroke="none" 
	d="
M112.441513,181.266602 
	C112.853302,181.012497 113.062393,181.007278 113.585159,181.002960 
	C114.163689,182.817963 114.680290,184.369171 117.388214,183.935577 
	C117.971016,183.725815 118.197433,183.584946 118.726334,183.705795 
	C115.149788,186.977798 113.544861,186.398224 112.441513,181.266602 
z"/>
<path fill="#372649" opacity="1.000000" stroke="none" 
	d="
M103.779327,184.673706 
	C104.188103,184.790497 104.618950,184.810181 104.833481,184.832062 
	C105.137688,185.008530 105.227364,185.163116 105.223526,185.568954 
	C105.130020,185.820190 104.922295,186.089264 104.818024,186.224640 
	C103.429977,186.292755 102.146210,186.225510 100.477509,186.244019 
	C100.168602,185.932159 100.244621,185.534576 100.590149,184.971924 
	C101.668221,184.438141 102.522339,184.527191 103.779327,184.673706 
z"/>
<path fill="#7E5243" opacity="1.000000" stroke="none" 
	d="
M119.115601,183.706543 
	C118.814438,183.956879 118.600044,183.946213 118.065117,183.901123 
	C117.931084,183.419479 118.117577,182.972275 118.503494,182.218338 
	C118.979317,181.931793 119.255661,181.952621 119.740837,181.980682 
	C119.700600,182.473358 119.451492,182.959457 119.115601,183.706543 
z"/>
<path fill="#2BC0E9" opacity="1.000000" stroke="none" 
	d="
M109.352646,171.894028 
	C108.862556,170.955078 108.574226,170.003281 107.331238,169.961807 
	C105.936607,169.915253 105.870293,170.968002 105.834053,171.951965 
	C105.786186,173.251480 105.804512,174.553421 105.797981,176.272980 
	C101.461769,178.802643 100.446304,178.538849 99.036171,174.420532 
	C98.536133,172.960144 97.971275,172.058792 96.380409,172.103149 
	C95.034050,172.140656 94.211800,172.834305 94.060303,174.186844 
	C93.561913,178.636551 90.814735,178.449875 87.390259,176.991974 
	C87.521957,171.061691 86.597816,165.421570 87.875793,159.502106 
	C93.129509,156.178375 98.704773,159.354996 104.207115,158.752182 
	C105.418114,158.619492 105.779015,161.327774 105.750114,163.024902 
	C105.708893,165.446609 105.335358,167.890228 109.385208,166.363602 
	C111.964569,165.391296 112.326172,167.579956 112.042747,170.087036 
	C111.201309,170.971512 110.416656,171.408798 109.352646,171.894028 
z"/>
<path fill="#433C4D" opacity="1.000000" stroke="none" 
	d="
M108.510101,159.100769 
	C112.778625,156.885559 117.635971,158.015167 122.719902,158.826279 
	C118.305016,159.163147 113.637840,159.158829 108.510101,159.100769 
z"/>
<path fill="#08576E" opacity="1.000000" stroke="none" 
	d="
M87.110199,176.978104 
	C89.924927,177.312622 92.880508,178.618301 92.867271,173.671463 
	C92.862160,171.760498 94.446503,170.816132 96.324890,170.774780 
	C98.394356,170.729218 100.227104,171.618225 100.140045,173.803528 
	C99.975136,177.943298 102.413017,177.411591 105.398750,176.830093 
	C105.807678,177.296326 105.813797,177.901001 105.736649,178.955658 
	C104.330940,179.304688 103.005058,179.088272 101.686783,179.127502 
	C99.170319,179.202377 97.327751,178.818512 98.045219,175.560516 
	C98.307053,174.371536 98.006859,173.003998 96.463196,173.028702 
	C94.927246,173.053268 94.666191,174.419495 94.946396,175.609436 
	C95.735847,178.962112 93.703949,179.357697 91.292839,179.068375 
	C88.548012,178.739014 87.835106,180.303680 87.321167,182.788559 
	C87.037140,181.662933 87.006630,180.253357 86.954987,178.422195 
	C86.972099,177.773209 87.010338,177.545822 87.110199,176.978104 
z"/>
<path fill="#0A6364" opacity="1.000000" stroke="none" 
	d="
M87.008270,186.484100 
	C88.976807,188.860794 87.326363,192.109421 88.199295,195.504852 
	C85.636597,193.258560 87.562393,189.911728 87.008270,186.484100 
z"/>
<path fill="#08576E" opacity="1.000000" stroke="none" 
	d="
M103.956474,184.576355 
	C103.354500,184.835587 102.520897,184.880676 101.273483,184.866318 
	C101.701416,183.928497 102.672508,183.883606 103.956474,184.576355 
z"/>
<path fill="#08576E" opacity="1.000000" stroke="none" 
	d="
M105.655930,181.028198 
	C105.878525,181.345581 105.930267,181.869858 105.905304,182.784470 
	C105.289101,182.603500 105.123222,181.966034 105.655930,181.028198 
z"/>
<path fill="#08576E" opacity="1.000000" stroke="none" 
	d="
M105.333199,185.690125 
	C105.130020,185.820190 105.048668,185.341415 105.048340,185.097687 
	C105.048019,184.853958 105.359138,184.716400 105.523819,184.674988 
	C105.811157,184.971115 105.760452,185.279938 105.333199,185.690125 
z"/>
</svg>
