<?xml version="1.0" standalone="no"?>
<!DOCTYPE svg PUBLIC "-//W3C//DTD SVG 20010904//EN"
 "http://www.w3.org/TR/2001/REC-SVG-20010904/DTD/svg10.dtd">
<svg version="1.0" xmlns="http://www.w3.org/2000/svg"
 width="512.000000pt" height="512.000000pt" viewBox="0 0 512.000000 512.000000"
 preserveAspectRatio="xMidYMid meet">

<g transform="translate(0.000000,512.000000) scale(0.100000,-0.100000)"
fill="#000000" stroke="none">
<path d="M719 5106 c-138 -37 -246 -158 -269 -302 -6 -34 -10 -400 -10 -871
l0 -813 75 0 74 0 3 843 3 842 22 42 c27 51 82 96 132 112 21 6 84 11 140 11
l101 0 0 -1763 0 -1764 -124 -6 c-123 -6 -143 -10 -263 -64 -10 -4 -13 159
-13 796 l0 801 -75 0 -75 0 0 -1087 c0 -658 4 -1112 10 -1147 20 -123 102
-230 218 -284 55 -26 64 -27 265 -30 l207 -4 0 -210 c0 -195 1 -209 18 -204 9
3 110 30 225 60 l207 56 208 -56 c114 -30 215 -57 225 -60 16 -5 17 9 17 205
l0 211 1178 2 1177 3 57 27 c116 54 198 161 218 284 13 80 13 3988 0 4068 -20
121 -96 223 -208 278 l-67 33 -542 3 -543 3 0 -76 0 -75 511 0 c355 0 523 -4
550 -11 50 -16 105 -61 132 -112 l22 -42 3 -1570 c2 -1116 0 -1585 -8 -1621
-13 -61 -63 -125 -121 -154 -37 -19 -62 -20 -689 -20 l-650 0 0 -75 0 -76 673
3 674 3 62 32 62 32 -3 -312 c-3 -300 -4 -314 -25 -354 -27 -50 -86 -100 -133
-113 -22 -6 -469 -10 -1182 -10 l-1148 0 0 170 0 170 858 2 857 3 3 73 3 72
-1311 0 -1310 0 0 -245 0 -245 -177 0 c-199 0 -231 6 -286 51 -71 58 -81 92
-85 281 -5 198 7 253 64 312 74 76 -14 71 1177 74 l1068 2 -3 73 -3 72 -877 3
-878 2 0 1765 0 1765 1010 0 1010 0 0 75 0 75 -1197 -1 c-916 0 -1209 -3
-1244 -13z m1171 -4551 c0 -249 -3 -355 -11 -355 -6 0 -73 16 -150 37 l-139
36 -139 -36 c-77 -21 -144 -37 -150 -37 -8 0 -11 106 -11 355 l0 355 300 0
300 0 0 -355z"/>
<path d="M1290 3250 l0 -840 1540 0 1540 0 0 840 0 840 -1540 0 -1540 0 0
-840z m2930 0 l0 -690 -1390 0 -1390 0 0 690 0 690 1390 0 1390 0 0 -690z"/>
<path d="M1640 3275 l0 -485 210 0 211 0 -3 73 -3 72 -138 3 -138 3 3 127 3
127 123 3 122 3 0 74 0 75 -125 0 -126 0 3 128 3 127 138 3 138 3 -3 72 -3 72
-207 3 -208 2 0 -485z"/>
<path d="M2848 3414 l-3 -347 -211 339 -211 339 -82 3 -81 3 0 -486 0 -485 75
0 75 0 2 347 3 347 214 -342 213 -342 79 0 79 0 -2 483 -3 482 -72 3 -73 3 -2
-347z"/>
<path d="M3542 3746 c-246 -60 -411 -300 -374 -544 37 -244 234 -414 477 -414
265 0 434 187 435 480 l0 82 -210 0 -210 0 0 -75 0 -74 133 -3 132 -3 -3 -25
c-6 -46 -62 -149 -98 -179 -143 -117 -391 -47 -481 138 -37 74 -40 200 -7 272
75 163 264 247 424 188 30 -11 62 -22 71 -25 10 -4 27 13 53 52 37 55 38 58
20 72 -81 61 -241 87 -362 58z"/>
<path d="M3902 988 l3 -73 73 -3 72 -3 0 76 0 75 -75 0 -76 0 3 -72z"/>
</g>
</svg>
