<?xml version="1.0" standalone="no"?>
<!DOCTYPE svg PUBLIC "-//W3C//DTD SVG 20010904//EN"
 "http://www.w3.org/TR/2001/REC-SVG-20010904/DTD/svg10.dtd">
<svg version="1.0" xmlns="http://www.w3.org/2000/svg"
 width="512.000000pt" height="512.000000pt" viewBox="0 0 512.000000 512.000000"
 preserveAspectRatio="xMidYMid meet">

<g transform="translate(0.000000,512.000000) scale(0.100000,-0.100000)"
fill="#000000" stroke="none">
<path d="M600 4820 l0 -300 -300 0 -300 0 0 -340 0 -340 300 0 300 0 0 -300 0
-300 340 0 340 0 0 300 0 300 300 0 300 0 0 340 0 340 -300 0 -300 0 0 300 0
300 -340 0 -340 0 0 -300z m510 -170 l0 -300 300 0 300 0 0 -170 0 -170 -300
0 -300 0 0 -300 0 -300 -170 0 -170 0 0 300 0 300 -300 0 -300 0 0 170 0 170
300 0 300 0 0 300 0 300 170 0 170 0 0 -300z"/>
<path d="M3240 4180 l0 -340 940 0 940 0 0 340 0 340 -940 0 -940 0 0 -340z
m1710 0 l0 -170 -770 0 -770 0 0 170 0 170 770 0 770 0 0 -170z"/>
<path d="M2470 3415 l0 -765 -765 0 -765 0 0 -90 0 -90 765 0 765 0 0 -765 0
-765 90 0 90 0 0 765 0 765 765 0 765 0 0 90 0 90 -765 0 -765 0 0 765 0 765
-90 0 -90 0 0 -765z"/>
<path d="M4073 2200 c-79 -26 -161 -99 -200 -178 -24 -49 -28 -69 -28 -142 0
-76 3 -92 33 -152 58 -118 154 -181 287 -186 63 -3 92 1 137 18 75 28 150 96
185 168 25 50 28 68 28 152 0 84 -3 101 -28 148 -81 154 -252 225 -414 172z
m159 -160 c41 -12 104 -75 114 -115 12 -47 -2 -113 -31 -151 -36 -47 -85 -67
-151 -62 -64 5 -110 37 -135 92 -43 94 -9 183 86 227 46 21 66 23 117 9z"/>
<path d="M318 1896 l-267 -264 209 -215 c116 -118 210 -219 210 -224 0 -4 -95
-103 -210 -218 l-210 -210 272 -272 273 -273 210 210 c116 116 215 210 220
210 6 0 102 -92 215 -205 113 -113 208 -204 212 -203 11 4 538 531 538 538 0
3 -95 100 -210 215 l-210 210 212 212 213 213 -273 272 -272 273 -213 -213
-212 -212 -210 210 c-115 115 -214 210 -220 210 -5 -1 -130 -119 -277 -264z
m920 -184 l212 213 152 -153 153 -152 -213 -212 -212 -213 212 -212 213 -213
-153 -152 -152 -153 -213 213 -212 212 -210 -210 c-115 -115 -214 -210 -220
-210 -6 0 -77 66 -158 148 l-147 147 210 210 c116 115 210 214 210 220 0 6
-75 84 -166 175 -91 91 -184 187 -206 213 l-41 49 149 149 149 149 215 -215
215 -215 213 212z"/>
<path d="M3240 1110 l0 -340 940 0 940 0 0 340 0 340 -940 0 -940 0 0 -340z
m1710 0 l0 -170 -770 0 -770 0 0 170 0 170 770 0 770 0 0 -170z"/>
<path d="M4078 667 c-101 -38 -167 -98 -211 -194 -31 -68 -31 -198 0 -265 30
-66 105 -143 172 -175 76 -38 200 -40 275 -5 75 34 129 84 167 154 32 59 34
69 34 158 0 79 -4 103 -23 142 -35 70 -96 134 -159 164 -67 33 -194 43 -255
21z m179 -173 c86 -41 119 -153 69 -238 -56 -96 -179 -114 -260 -38 -140 132
16 358 191 276z"/>
</g>
</svg>
