<?xml version="1.0" standalone="no"?>
<!DOCTYPE svg PUBLIC "-//W3C//DTD SVG 20010904//EN"
 "http://www.w3.org/TR/2001/REC-SVG-20010904/DTD/svg10.dtd">
<svg version="1.0" xmlns="http://www.w3.org/2000/svg"
 width="512.000000pt" height="512.000000pt" viewBox="0 0 512.000000 512.000000"
 preserveAspectRatio="xMidYMid meet">

<g transform="translate(0.000000,512.000000) scale(0.100000,-0.100000)"
fill="#000000" stroke="none">
<path d="M188 5107 c-62 -20 -121 -69 -153 -128 l-30 -54 -3 -1560 c-3 -1731
-7 -1621 65 -1704 20 -24 59 -54 87 -67 51 -24 53 -24 424 -24 227 0 372 -4
372 -9 0 -6 -88 -281 -196 -613 -173 -532 -197 -611 -197 -668 0 -145 108
-262 256 -277 98 -10 205 41 256 123 17 25 63 149 105 280 l77 234 1308 0
1309 0 17 -51 c29 -85 75 -110 129 -68 18 14 26 30 26 51 0 16 -70 245 -155
508 -85 262 -155 480 -155 484 0 3 62 6 138 6 l138 0 204 -627 c123 -380 203
-643 203 -665 -1 -45 -23 -82 -66 -108 -71 -44 -144 -14 -191 75 -38 72 -72
89 -115 58 -43 -33 -47 -62 -19 -124 33 -73 66 -109 130 -144 46 -26 63 -30
128 -30 89 0 146 23 202 80 55 56 81 118 81 195 0 57 -23 136 -197 668 -108
331 -196 607 -196 612 0 6 133 10 373 10 370 0 372 0 423 24 27 13 67 43 87
67 71 83 67 -26 67 1683 0 1018 -4 1553 -10 1578 -18 65 -70 130 -130 163
l-55 30 -2350 2 c-1779 1 -2359 -1 -2387 -10z m4717 -153 c70 -33 65 84 65
-1614 0 -1659 3 -1566 -52 -1604 -20 -14 -258 -16 -2358 -16 -2100 0 -2338 2
-2358 16 -55 38 -52 -55 -52 1604 0 1694 -4 1581 63 1614 29 14 265 16 2345
16 2087 0 2317 -2 2347 -16z m-3515 -3390 c0 -19 -434 -1341 -446 -1360 -19
-28 -72 -54 -111 -54 -35 0 -86 31 -109 65 -9 14 -17 42 -17 63 0 22 80 285
203 665 l204 627 138 0 c76 0 138 -3 138 -6z m2245 -198 c36 -112 65 -209 65
-215 0 -8 -307 -11 -1140 -11 -833 0 -1140 3 -1140 11 0 6 29 103 65 215 l66
204 1009 0 1009 0 66 -204z m149 -463 c16 -49 31 -94 33 -100 4 -10 -251 -13
-1257 -13 -1006 0 -1261 3 -1257 13 2 6 17 51 33 100 l28 87 1196 0 1196 0 28
-87z"/>
<path d="M381 4782 c-19 -10 -43 -34 -53 -53 -17 -32 -18 -95 -18 -1389 0
-1341 0 -1355 20 -1388 12 -19 38 -41 63 -52 41 -19 93 -20 2167 -20 2074 0
2126 1 2167 20 25 11 51 33 63 52 20 33 20 47 20 1388 0 1294 -1 1357 -18
1389 -10 19 -34 43 -53 53 -32 17 -99 18 -1501 18 l-1467 0 -20 -26 c-26 -33
-27 -65 -2 -95 l19 -24 1446 -3 1446 -2 0 -1310 0 -1310 -2100 0 -2100 0 0
1310 0 1309 516 3 516 3 19 24 c25 30 24 62 -2 95 l-20 26 -537 0 c-501 0
-540 -1 -571 -18z"/>
<path d="M773 3900 c-12 -5 -26 -18 -32 -29 -7 -13 -11 -188 -11 -529 l0 -509
23 -21 c23 -21 31 -22 251 -22 141 0 235 4 247 11 48 25 44 105 -7 128 -15 7
-90 11 -194 11 l-170 0 0 165 0 165 161 0 161 0 30 30 c24 25 29 36 24 58 -14
57 -32 62 -212 62 l-164 0 0 170 0 170 183 0 c201 0 207 2 222 62 6 22 1 33
-23 58 l-30 30 -219 -1 c-120 0 -228 -4 -240 -9z"/>
<path d="M4128 3900 c-59 -18 -97 -51 -124 -106 -26 -54 -26 -57 -11 -89 29
-60 104 -56 134 7 18 36 39 51 62 43 28 -9 36 -46 18 -81 -9 -16 -58 -87 -111
-159 -105 -142 -114 -168 -71 -210 23 -24 28 -25 170 -25 142 0 147 1 170 25
14 13 25 36 25 50 0 14 -11 37 -25 50 -20 21 -34 25 -85 25 l-60 0 49 68 c76
105 95 148 95 218 1 50 -4 68 -27 102 -43 65 -141 104 -209 82z"/>
<path d="M2185 3542 c-11 -2 -28 -11 -37 -20 -17 -14 -18 -44 -18 -357 0 -330
1 -343 20 -360 28 -25 76 -23 103 4 21 21 22 32 27 244 4 181 8 228 21 252 52
95 165 109 205 27 16 -32 19 -69 22 -267 2 -126 8 -238 14 -248 24 -46 104
-41 127 9 7 16 11 100 11 235 0 229 5 258 55 297 31 25 97 30 138 11 46 -21
51 -47 55 -306 4 -223 5 -243 23 -259 30 -27 78 -22 106 11 l25 28 -4 236 c-4
196 -7 245 -22 286 -39 108 -103 155 -221 163 -80 5 -128 -7 -186 -45 l-37
-24 -43 30 c-24 17 -66 35 -94 40 -52 10 -139 0 -175 -19 -18 -10 -26 -8 -43
8 -27 23 -46 30 -72 24z"/>
<path d="M3520 3525 c-74 -21 -127 -54 -182 -113 -74 -79 -100 -146 -99 -261
1 -215 185 -384 402 -369 80 6 147 36 201 90 44 44 50 82 18 116 -29 31 -81
29 -117 -4 -106 -99 -289 -50 -344 93 -16 42 -12 137 7 175 59 118 200 167
311 110 58 -30 96 -29 122 4 27 35 26 56 -4 93 -52 61 -211 95 -315 66z"/>
<path d="M1500 3350 c-30 -30 -27 -83 6 -109 25 -19 40 -21 190 -21 156 0 164
1 190 23 35 31 38 82 5 109 -21 16 -43 18 -197 18 -161 0 -176 -2 -194 -20z"/>
<path d="M1530 3103 c-34 -13 -50 -37 -50 -74 0 -64 16 -69 221 -69 164 0 177
1 194 20 25 28 23 76 -4 103 -20 21 -31 22 -184 24 -89 1 -169 -1 -177 -4z"/>
</g>
</svg>
