<?xml version="1.0" standalone="no"?>
<!DOCTYPE svg PUBLIC "-//W3C//DTD SVG 20010904//EN"
 "http://www.w3.org/TR/2001/REC-SVG-20010904/DTD/svg10.dtd">
<svg version="1.0" xmlns="http://www.w3.org/2000/svg"
 width="512.000000pt" height="512.000000pt" viewBox="0 0 512.000000 512.000000"
 preserveAspectRatio="xMidYMid meet">

<g transform="translate(0.000000,512.000000) scale(0.100000,-0.100000)"
fill="#000000" stroke="none">
<path d="M2413 4948 c-245 -23 -512 -128 -715 -281 -286 -215 -491 -546 -554
-897 -24 -131 -24 -383 0 -505 125 -634 621 -1098 1256 -1175 666 -80 1317
338 1525 980 53 167 69 264 69 445 0 186 -17 297 -70 454 -182 545 -665 927
-1239 981 -122 11 -140 11 -272 -2z m67 -549 l0 -392 -73 6 c-116 10 -384 88
-402 117 -3 5 9 48 26 97 96 274 232 462 384 535 33 15 61 28 63 28 1 0 2
-176 2 -391z m248 352 c134 -68 271 -267 362 -526 29 -82 30 -90 14 -102 -53
-39 -330 -113 -423 -113 l-41 0 0 390 0 390 25 -10 c13 -5 42 -18 63 -29z
m-677 -113 c-62 -91 -130 -229 -167 -333 -15 -44 -29 -82 -30 -84 -5 -6 -138
96 -179 139 l-40 41 66 64 c37 34 95 82 130 106 70 48 237 138 256 139 7 0 -9
-33 -36 -72z m1072 31 c112 -57 216 -128 295 -204 l67 -64 -45 -46 c-46 -47
-156 -135 -169 -135 -4 0 -20 37 -36 83 -34 102 -109 252 -169 340 -25 37 -41
67 -36 67 6 0 47 -19 93 -41z m-1525 -458 c69 -60 183 -146 204 -153 8 -3 7
-29 -5 -104 -9 -54 -22 -156 -28 -226 l-12 -128 -240 0 -239 0 6 58 c16 133
70 312 134 437 30 60 102 175 109 175 2 0 35 -26 71 -59z m2040 -4 c104 -165
176 -364 197 -549 l6 -58 -239 0 -239 0 -7 93 c-7 91 -29 262 -42 323 -6 30
-2 34 73 87 43 30 105 80 138 111 33 30 63 55 67 56 3 0 24 -28 46 -63z
m-1388 -332 c58 -13 133 -27 168 -30 l62 -7 0 -119 0 -119 -280 0 -280 0 0 33
c0 38 28 279 36 311 l5 23 92 -35 c50 -19 139 -45 197 -57z m919 23 c13 -76
31 -233 31 -270 l0 -28 -280 0 -280 0 0 119 0 119 95 11 c106 14 237 47 335
84 36 14 70 26 76 26 7 1 17 -26 23 -61z m-1405 -480 c3 -13 8 -68 11 -123 3
-55 14 -146 23 -202 l18 -103 -61 -39 c-34 -22 -99 -72 -145 -112 -95 -82 -81
-86 -153 36 -84 143 -149 335 -166 497 l-7 68 238 0 238 0 4 -22z m716 -103
l0 -125 -38 0 c-75 0 -229 -32 -354 -74 l-126 -42 -16 105 c-9 58 -19 141 -22
184 l-7 77 282 0 281 0 0 -125z m720 92 c0 -39 -28 -279 -36 -312 l-6 -24 -51
21 c-125 50 -333 98 -429 98 l-38 0 0 125 0 125 280 0 280 0 0 -33z m635 -24
c-25 -208 -123 -470 -223 -593 l-20 -24 -62 58 c-35 31 -98 82 -141 113 -44
30 -79 60 -79 66 0 7 7 48 15 93 7 44 19 140 26 212 l12 132 240 0 239 0 -7
-57z m-1355 -743 l0 -390 -25 10 c-100 38 -193 119 -269 233 -67 101 -94 156
-139 277 -56 152 -56 137 5 164 108 48 290 93 381 95 l47 1 0 -390z m341 370
c100 -21 252 -71 283 -93 16 -12 15 -20 -14 -102 -106 -301 -250 -488 -425
-555 l-25 -10 0 390 0 390 41 0 c22 0 85 -9 140 -20z m-936 -272 c34 -103 109
-253 169 -341 25 -37 41 -67 36 -67 -19 0 -175 83 -245 130 -38 26 -101 77
-140 113 l-70 65 45 47 c45 47 156 135 169 135 4 0 20 -37 36 -82z m1455 33
c36 -27 83 -68 105 -90 l39 -41 -49 -50 c-68 -69 -201 -163 -307 -216 -48 -24
-92 -44 -98 -44 -5 0 12 33 39 73 63 92 131 229 168 334 15 46 30 83 33 83 3
0 34 -22 70 -49z"/>
<path d="M965 2471 c-92 -24 -173 -90 -215 -176 -35 -73 -35 -199 0 -270 31
-64 91 -124 155 -155 71 -35 197 -35 270 0 64 31 124 91 155 155 35 73 35 199
0 270 -32 64 -92 124 -155 154 -54 25 -156 36 -210 22z m138 -165 c103 -43
128 -177 48 -257 -65 -65 -157 -65 -222 0 -124 123 13 325 174 257z"/>
<path d="M3980 2464 c-143 -52 -230 -184 -217 -329 11 -116 67 -201 169 -256
57 -31 70 -34 148 -34 79 0 90 3 150 36 231 127 222 456 -15 568 -65 31 -172
38 -235 15z m163 -158 c104 -43 128 -175 47 -256 -66 -66 -156 -67 -221 -1
-124 123 13 325 174 257z"/>
<path d="M2460 1904 c-227 -82 -293 -362 -125 -529 66 -66 125 -90 225 -89 72
0 93 4 136 26 75 39 107 70 145 140 30 57 33 71 34 148 0 100 -24 159 -90 225
-82 82 -222 116 -325 79z m163 -158 c103 -43 128 -177 48 -257 -65 -65 -157
-65 -222 0 -124 123 13 325 174 257z"/>
<path d="M320 1747 c-49 -16 -133 -102 -148 -153 -28 -94 -8 -169 63 -239 65
-66 99 -75 269 -75 l136 0 0 -255 0 -256 25 -24 24 -25 351 0 351 0 24 25 25
24 0 256 0 255 138 0 c173 0 214 12 275 80 90 100 90 220 0 320 -75 83 -41 80
-817 79 -466 -1 -692 -5 -716 -12z m1415 -172 c33 -32 33 -78 0 -110 -24 -25
-26 -25 -215 -25 -189 0 -191 0 -215 -25 l-25 -24 0 -256 0 -255 -240 0 -240
0 0 255 0 256 -25 24 c-24 25 -26 25 -215 25 -189 0 -191 0 -215 25 -16 15
-25 36 -25 55 0 19 9 40 25 55 l24 25 671 0 671 0 24 -25z"/>
<path d="M3360 1747 c-49 -16 -133 -102 -148 -153 -28 -94 -8 -169 63 -239 65
-66 99 -75 269 -75 l136 0 0 -255 0 -256 25 -24 24 -25 351 0 351 0 24 25 25
24 0 256 0 255 138 0 c173 0 214 12 275 80 24 26 49 66 55 88 26 86 8 162 -55
232 -75 83 -41 80 -817 79 -466 -1 -692 -5 -716 -12z m1415 -172 c33 -32 33
-78 0 -110 -24 -25 -26 -25 -215 -25 -189 0 -191 0 -215 -25 l-25 -24 0 -256
0 -255 -240 0 -240 0 0 255 0 256 -25 24 c-24 25 -26 25 -215 25 -189 0 -191
0 -215 25 -16 15 -25 36 -25 55 0 19 9 40 25 55 l24 25 671 0 671 0 24 -25z"/>
<path d="M1840 1187 c-49 -16 -133 -102 -148 -153 -28 -94 -8 -169 63 -239 65
-66 99 -75 269 -75 l136 0 0 -255 0 -256 25 -24 24 -25 351 0 351 0 24 25 25
24 0 256 0 255 138 0 c173 0 214 12 275 80 24 26 49 66 55 88 26 86 8 162 -55
232 -75 83 -41 80 -817 79 -466 -1 -692 -5 -716 -12z m1415 -172 c33 -32 33
-78 0 -110 -24 -25 -26 -25 -215 -25 -189 0 -191 0 -215 -25 l-25 -24 0 -256
0 -255 -240 0 -240 0 0 255 0 256 -25 24 c-24 25 -26 25 -215 25 -189 0 -191
0 -215 25 -16 15 -25 36 -25 55 0 19 9 40 25 55 l24 25 671 0 671 0 24 -25z"/>
</g>
</svg>
